<svg width="693" height="548" viewBox="0 0 693 548" fill="none" xmlns="http://www.w3.org/2000/svg">
<path d="M157.729 167.565L13.3627 211.211C6.23631 213.716 2.26785 219.014 7.8893 228.395L184.22 525.015C187.894 531.12 197.836 528.901 201.032 525.656L307.72 413.395C310.916 410.151 311.484 405.19 309.093 401.24L170.401 172.25C167.788 168.074 162.568 166.074 157.729 167.565Z" fill="#B7CFFD" stroke="#4A6193" stroke-width="1.5" stroke-miterlimit="10" stroke-linecap="round" stroke-linejoin="round"/>
<path d="M162.125 165.401L13.7214 211.034C9.19548 212.482 7.15107 217.612 9.58569 221.652L189.014 523.658C191.669 528.147 197.926 528.856 201.527 525.077L311.937 411.319C315.133 408.074 315.7 403.114 313.31 399.163L174.707 170.13C172.184 165.91 166.964 163.91 162.125 165.401Z" fill="white" stroke="#4A6193" stroke-width="1.5" stroke-miterlimit="10" stroke-linecap="round" stroke-linejoin="round"/>
<path d="M263.023 448.758C261.755 444.757 258.422 442.244 255.579 443.145C252.736 444.047 251.46 448.021 252.729 452.022C253.998 456.023 257.33 458.535 260.173 457.634C263.016 456.732 264.292 452.759 263.023 448.758Z" fill="white" stroke="#4A6193" stroke-width="1.5" stroke-miterlimit="10" stroke-linecap="round" stroke-linejoin="round"/>
<path d="M104.591 196.081C105.271 195.713 105.46 194.745 105.013 193.92C104.565 193.094 103.651 192.724 102.972 193.092C102.292 193.461 102.103 194.428 102.551 195.254C102.998 196.079 103.912 196.45 104.591 196.081Z" fill="#E1EEF9"/>
<path d="M176.022 181.632C175.579 180.958 174.776 180.685 174.014 180.948L24.54 233.239C23.5987 233.591 23.1448 234.707 23.6761 235.56L181.637 501.654C182.256 502.687 183.687 502.874 184.497 502.03L302.043 391.446C302.672 390.913 302.768 389.975 302.325 389.301L176.022 181.632Z" fill="white" stroke="#4A6193" stroke-width="1.5" stroke-miterlimit="10" stroke-linecap="round" stroke-linejoin="round"/>
<path d="M193.677 492.829L124.143 376.254C123.258 374.683 122.866 372.981 123.01 371.461C123.153 369.941 123.877 368.694 125.044 367.896L233.105 301.216C233.868 300.729 234.896 300.78 235.832 301.322C236.858 301.821 237.791 302.81 238.589 303.978L295.294 397.889C295.693 398.473 296.139 398.699 296.454 398.433C296.768 398.167 296.729 397.406 296.374 396.912L239.801 303.27C237.587 299.679 234.02 297.867 231.776 299.195L123.405 365.471C119.993 367.597 119.378 372.914 122.078 377.493L191.789 494.427C192.232 495.101 192.901 495.329 193.351 494.885C194.025 494.442 194.12 493.503 193.677 492.829Z" fill="#4A6193"/>
<path d="M205.343 292.367L130.887 334.48C128.104 336.073 123.78 333.855 121.213 329.545L90.628 278.283C88.0609 273.973 88.4461 269.548 91.3157 268.359L170.593 234.907C172.79 233.936 176.354 236.195 178.612 239.876L204.994 283.734C207.208 287.325 207.362 291.262 205.343 292.367Z" fill="white"/>
<path d="M205.343 292.367L204.723 291.335L130.179 333.268C129.147 333.888 127.761 333.79 126.246 332.975C124.774 332.251 123.307 330.855 122.156 328.969L91.6152 277.797C90.5083 276.001 90.0281 274.12 90.1717 272.6C90.3153 271.08 90.9035 270.011 92.114 269.526L171.302 235.895C172.154 235.587 173.36 235.774 174.518 236.541C175.676 237.309 176.965 238.569 177.94 240.096L204.456 283.998C205.474 285.615 205.912 287.183 205.904 288.524C205.895 289.866 205.576 290.803 204.723 291.335L205.343 292.367L205.963 293.399C207.175 292.691 207.765 291.175 207.732 289.296C207.699 287.417 206.997 285.311 205.757 283.246L179.375 239.389C178.136 237.324 176.536 235.659 174.799 234.62C173.151 233.536 171.409 233.167 170.019 233.74L90.6976 267.102C88.9488 267.852 87.9099 269.59 87.8077 271.646C87.6157 273.747 88.3149 276.3 89.731 278.724L120.36 330.077C121.776 332.5 123.822 334.392 125.783 335.432C127.834 336.429 129.979 336.71 131.64 335.782L206.007 293.489L205.343 292.367Z" fill="#4A6193"/>
<path d="M203.093 287.344L126.893 329.536L128 331.332L204.112 288.961L203.093 287.344Z" fill="#D3DDF2"/>
<path d="M158.666 311.889L127.207 329.269L128.27 330.975L159.684 313.505L158.666 311.889Z" fill="#6797F6"/>
<path opacity="0.5" d="M161.345 276.575C165.594 283.623 165.009 291.49 159.983 294.187C154.824 296.838 146.976 293.123 142.594 285.806C138.212 278.489 138.976 270.533 144.314 268.017C149.516 265.679 157.095 269.527 161.345 276.575Z" fill="#6797F6" stroke="#256BF6" stroke-width="1.5" stroke-miterlimit="10"/>
<path opacity="0.5" d="M171.09 270.106C175.915 278.097 175.278 286.993 169.491 289.953C163.658 293.047 154.784 288.833 149.782 280.483C144.825 272.224 145.73 263.195 151.74 260.46C157.75 257.724 166.31 261.982 171.09 270.106Z" fill="#6797F6" stroke="#256BF6" stroke-width="1.5" stroke-miterlimit="10"/>
<path d="M181.304 260.062C177.403 254.627 172.46 251.152 167.948 250.364L166.351 248.252L161.412 251.352C161.053 251.529 160.828 251.751 160.514 252.018C155.253 256.502 155.99 267.508 162.419 276.492C168.403 285.027 177.191 288.614 182.49 285.114L187.16 282.147L186.009 280.261C187.831 274.906 186.136 266.935 181.304 260.062Z" fill="#6797F6" stroke="#256BF6" stroke-width="1.5" stroke-miterlimit="10"/>
<path d="M186.018 257.185C192.269 266.034 193.274 276.908 188.102 281.571C182.93 286.235 173.516 282.733 167.043 273.659C160.703 264.63 159.833 253.579 165.138 249.184C170.488 244.656 179.767 248.336 186.018 257.185Z" fill="#6797F6" stroke="#256BF6" stroke-width="1.5" stroke-miterlimit="10"/>
<path d="M177.844 269.79L172.215 261.75C171.594 260.941 171.913 260.004 172.806 260.233L179.773 261.707C180.622 261.847 181.331 262.835 181.148 263.595L179.632 270.025C179.404 270.694 178.465 270.599 177.844 269.79Z" fill="white"/>
<path d="M163.846 392.377L156.075 397.874C154.727 398.76 152.72 397.853 151.437 395.698L145.462 385.599C144.178 383.444 144.238 381.074 145.585 380.188L153.489 374.96C154.746 374.118 156.797 375.115 158.037 377.179L163.879 387.01C165.028 389.119 165.059 391.445 163.846 392.377Z" fill="#6797F6" stroke="#256BF6" stroke-width="1.5" stroke-miterlimit="10"/>
<path d="M163.846 392.377L163.137 391.165L155.366 396.662C155.052 396.929 154.515 396.97 153.935 396.698C153.355 396.426 152.777 395.93 152.29 395.167L146.359 385.157C145.872 384.394 145.698 383.588 145.702 382.917C145.706 382.246 145.933 381.8 146.248 381.534L154.151 376.306C154.466 376.039 154.957 376.132 155.493 376.314C156.073 376.586 156.651 377.082 157.048 377.889L162.89 387.72C163.377 388.483 163.552 389.289 163.503 389.87C163.499 390.541 163.273 390.987 162.958 391.253L163.846 392.377L164.554 393.589C165.452 392.923 165.906 391.808 165.914 390.466C165.923 389.125 165.484 387.781 164.688 386.389L158.846 376.559C158.093 375.257 157.026 374.222 155.867 373.678C154.797 373.09 153.545 373.037 152.646 373.703L144.743 378.931C143.8 379.506 143.301 380.755 143.292 382.097C143.284 383.438 143.677 384.917 144.429 386.219L150.404 396.318C151.201 397.71 152.268 398.745 153.383 399.199C154.542 399.743 155.66 399.75 156.693 399.13L164.464 393.633L163.846 392.377Z" fill="#256BF6"/>
<path d="M151.12 389.167L156.206 391.122C156.473 391.213 156.831 391.259 157.056 391.037C157.325 390.905 157.416 390.637 157.463 390.28L158.097 381.831C158.191 381.116 157.704 380.353 157.034 380.125C156.365 379.897 155.871 380.252 155.777 380.967L155.196 388.163L151.224 386.663C150.555 386.435 150.061 386.79 149.967 387.505C149.963 388.176 150.45 388.939 151.12 389.167Z" fill="white"/>
<path d="M220.791 332.579L166.722 368.557C166.542 368.646 166.274 368.555 166.052 368.33L164.857 366.355C164.724 366.086 164.681 365.772 164.951 365.64L219.152 329.93C219.331 329.842 219.6 329.933 219.732 330.202L220.839 331.998C220.927 332.177 220.97 332.491 220.791 332.579Z" fill="#D3DDF2"/>
<path d="M225.306 339.942L171.769 376.773C171.589 376.861 171.322 376.77 171.099 376.545L169.904 374.57C169.771 374.301 169.729 373.988 169.998 373.855L223.802 337.338C223.982 337.25 224.249 337.341 224.382 337.61L225.488 339.406C225.487 339.629 225.396 339.897 225.306 339.942Z" fill="#D3DDF2"/>
<path d="M198.019 369.87L176.682 384.943C176.457 385.165 176.011 384.939 175.745 384.624L174.638 382.828C174.505 382.559 174.463 382.246 174.732 382.114L196.113 367.13C196.382 366.998 196.783 367.134 196.96 367.493L198.023 369.199C198.245 369.424 198.288 369.737 198.019 369.87Z" fill="#D3DDF2"/>
<path d="M261.958 400.812L212.268 444.555C212.133 444.733 211.866 444.642 211.733 444.373L210.494 442.308C210.361 442.039 210.318 441.725 210.498 441.637L260.454 398.209C260.634 398.121 260.767 398.166 260.989 398.391L262.14 400.277C262.095 400.411 262.004 400.678 261.958 400.812Z" fill="#D3DDF2"/>
<path d="M266.429 408.309L217.137 452.859C217.001 453.037 216.733 452.946 216.601 452.677L215.362 450.612C215.229 450.343 215.186 450.029 215.366 449.941L264.79 405.66C264.97 405.572 265.104 405.617 265.326 405.842L266.477 407.728C266.521 407.818 266.564 408.131 266.429 408.309Z" fill="#D3DDF2"/>
<path d="M241.841 442.816L222.138 461.209C222.003 461.387 221.735 461.296 221.603 461.026L220.363 458.961C220.231 458.692 220.188 458.379 220.323 458.201L240.114 439.988C240.249 439.81 240.517 439.901 240.65 440.17L241.845 442.145C242.067 442.37 241.976 442.638 241.841 442.816Z" fill="#D3DDF2"/>
<path d="M161.393 412.754C159.911 413.818 159.943 415.921 161.36 418.121L177.955 446.399C179.461 448.778 183.12 450.098 184.604 448.81L262.437 381.405C263.426 380.472 263.348 378.728 262.019 376.707L248.115 354.349C246.83 352.418 243.887 350.969 242.853 351.812L161.393 412.754Z" fill="#D3DDF2"/>
<path d="M286.515 356.958L205.959 423.586C204.386 424.918 200.637 423.642 199.221 421.218L182.932 394.015C181.604 391.771 181.662 389.625 183.324 388.472L267.47 327.099C268.593 326.212 271.536 327.661 272.731 329.636L286.277 352.171C287.606 354.192 287.728 356.026 286.515 356.958Z" fill="white"/>
<path d="M286.609 356.243L285.989 355.211L205.344 421.659C205.119 421.882 204.716 421.968 204.269 421.966C203.598 421.962 202.705 421.732 201.948 421.325C201.19 420.918 200.523 420.243 200.213 419.838L183.968 392.725C183.437 391.872 183.307 391.156 183.355 390.575C183.404 389.994 183.63 389.548 184.259 389.015L268.317 327.463C268.497 327.375 268.766 327.242 269.123 327.289C269.704 327.338 270.374 327.565 270.952 328.061C271.576 328.422 272.108 329.052 272.375 329.367L285.92 351.901C286.407 352.665 286.627 353.337 286.624 353.784C286.621 354.231 286.529 354.722 286.035 355.077L286.609 356.243L287.228 357.276C287.947 356.699 288.266 355.762 288.273 354.644C288.236 353.436 287.841 352.181 287.043 351.014L273.499 328.479C273.056 327.805 272.523 327.176 271.944 326.68C271.144 325.96 270.208 325.417 269.315 325.188C268.422 324.959 267.618 324.909 266.944 325.352L182.71 386.546C181.721 387.255 181.133 388.325 181.035 389.71C180.937 391.096 181.33 392.575 182.261 394.012L198.594 421.304C199.125 422.157 199.792 422.832 200.504 423.373C201.572 424.185 202.732 424.729 203.894 424.825C205.01 425.056 206.174 424.929 207.028 424.174L287.452 357.277L286.609 356.243Z" fill="#D3DDF2"/>
<path d="M245.135 380.448L225.223 396.604C224.998 396.826 224.686 396.645 224.42 396.33L223.357 394.624C223.18 394.265 223.183 393.818 223.362 393.73L243.319 377.665C243.544 377.442 243.856 377.623 244.032 377.982L245.095 379.688C245.317 379.913 245.36 380.226 245.135 380.448Z" fill="#D3DDF2"/>
<path d="M265.904 341.58L215.485 380.22C215.26 380.442 214.949 380.261 214.682 379.946L213.62 378.24C213.443 377.881 213.446 377.434 213.625 377.346L264.266 338.931C264.445 338.843 264.713 338.934 264.979 339.249L265.954 340.775C266.086 341.044 266.084 341.492 265.904 341.58Z" fill="#D3DDF2"/>
<path d="M270.33 348.987L220.354 388.524C220.129 388.746 219.816 388.565 219.55 388.25L218.488 386.544C218.311 386.185 218.314 385.738 218.493 385.65L268.646 346.472C268.826 346.383 269.093 346.474 269.36 346.789L270.335 348.316C270.513 348.451 270.465 348.809 270.33 348.987Z" fill="#D3DDF2"/>
<path d="M210.276 470.169L203.169 476.788C201.954 477.943 199.947 477.036 198.708 474.972L192.599 464.826C191.315 462.671 191.287 460.122 192.545 459.057L199.785 452.706C200.955 451.685 202.917 452.502 204.2 454.657L210.087 464.577C211.372 466.508 211.445 469.147 210.276 470.169Z" fill="white"/>
<path d="M210.276 470.168L209.567 468.957L202.46 475.576C202.146 475.842 201.653 475.973 201.163 475.657C200.627 475.475 200.005 474.89 199.608 474.082L193.633 463.983C193.146 463.219 192.972 462.413 192.932 461.653C192.936 460.982 193.118 460.446 193.433 460.18L200.672 453.83C200.987 453.563 201.39 453.476 201.97 453.748C202.506 453.931 203.084 454.426 203.481 455.234L209.367 465.154C209.855 465.917 210.029 466.723 210.024 467.394C210.02 468.065 209.838 468.6 209.523 468.867L210.276 470.168L210.984 471.38C211.838 470.625 212.204 469.331 212.168 467.899C212.132 466.468 211.649 465.034 210.897 463.732L205.01 453.812C204.258 452.51 203.192 451.475 202.12 451.111C201.095 450.613 199.887 450.65 199.033 451.405L191.793 457.755C190.938 458.51 190.483 459.849 190.519 461.28C190.555 462.712 190.948 464.19 191.744 465.581L197.853 475.726C198.649 477.118 199.672 478.063 200.788 478.517C201.903 478.971 202.977 478.889 203.921 478.09L211.028 471.47L210.276 470.168Z" fill="#D3DDF2"/>
<path d="M129.15 218.191L48.4226 247.565C47.3915 247.961 45.832 247.056 44.9459 245.709L43.0423 242.522C42.2018 241.041 42.3899 239.611 43.421 239.215L124.678 210.919C125.53 210.611 126.821 211.424 127.529 212.636L129.212 215.374C129.964 216.676 129.912 217.928 129.15 218.191Z" fill="#A7B2C7"/>
<path d="M108.704 240.962L55.8491 261.519C55.1769 261.739 54.2854 261.286 53.7099 260.343L52.2937 257.92C51.7623 257.067 51.8576 256.128 52.4856 255.819L105.562 235.71C106.144 235.535 106.946 236.032 107.433 236.795L108.761 239.04C109.292 239.893 109.153 240.741 108.704 240.962Z" fill="#A7B2C7"/>
<path opacity="0.5" d="M224.108 396.15L217.635 401.342C216.601 402.185 214.773 401.414 213.622 399.528L208.355 390.641C207.204 388.755 207.262 386.609 208.296 385.765L214.856 380.753C215.89 379.909 217.674 380.815 218.781 382.611L223.915 391.229C225.066 393.115 225.142 395.307 224.108 396.15Z" fill="#6797F6" stroke="#256BF6" stroke-width="1.5" stroke-miterlimit="10"/>
<path opacity="0.5" d="M215.314 400.701L209.471 405.361C208.526 406.16 206.921 405.39 205.903 403.773L201.122 395.873C200.104 394.256 200.116 392.244 201.104 391.534L207.036 387.054C208.024 386.345 209.495 387.069 210.514 388.686L215.116 396.451C216.18 397.934 216.258 399.902 215.314 400.701Z" fill="#6797F6" stroke="#256BF6" stroke-width="1.5" stroke-miterlimit="10"/>
<path d="M228.984 374.356C228.807 373.997 228.585 373.772 228.362 373.547L229.547 370.066L225.062 372.05C224.883 372.139 224.703 372.227 224.614 372.271L217.244 377.905C216.031 378.837 216.016 381.297 217.255 383.361L223.141 393.282C224.293 395.167 225.942 396.027 227.152 395.542L231.727 393.514C231.727 393.514 231.641 392.887 231.557 392.037L234.838 389.418C236.051 388.487 235.977 386.071 234.737 384.007L228.984 374.356Z" fill="#6797F6" stroke="#256BF6" stroke-width="1.5" stroke-miterlimit="10" stroke-linecap="round" stroke-linejoin="round"/>
<path d="M239.546 387.435L232.309 393.339C231.096 394.27 229.133 393.453 227.85 391.298L221.963 381.378C220.724 379.313 220.739 376.854 221.952 375.922L229.322 370.288C230.535 369.356 232.452 370.307 233.692 372.372L239.49 382.113C240.595 384.132 240.67 386.548 239.546 387.435Z" fill="#6797F6" stroke="#256BF6" stroke-width="1.5" stroke-miterlimit="10"/>
<path d="M227.264 384.676L232.307 386.541C232.574 386.632 232.887 386.589 233.157 386.456C233.382 386.234 233.473 385.966 233.52 385.609L233.883 377.517C233.887 376.846 233.49 376.038 232.82 375.811C232.241 375.539 231.701 376.027 231.697 376.698L231.342 383.449L227.415 382.038C226.835 381.766 226.296 382.255 226.202 382.97C226.108 383.685 226.639 384.538 227.264 384.676Z" fill="white"/>
<path d="M273.123 324.094C271.707 321.67 269.661 320.002 267.741 319.499L267.165 318.556L264.966 319.75C264.787 319.838 264.697 319.882 264.518 319.971C262.137 321.7 262.107 326.396 264.586 330.525C266.888 334.296 270.499 336.197 272.833 334.825L274.942 333.675L274.545 332.868C275.453 330.638 274.982 327.191 273.123 324.094Z" fill="#6797F6" stroke="#256BF6" stroke-width="1.5" stroke-miterlimit="10"/>
<path d="M275.233 322.944C277.623 326.894 277.684 331.546 275.347 333.365C273.01 335.184 269.13 333.415 266.561 329.33C264.127 325.29 264.112 320.504 266.493 318.775C269.052 317.181 272.842 318.993 275.233 322.944Z" fill="#6797F6" stroke="#256BF6" stroke-width="1.5" stroke-miterlimit="10"/>
<path d="M271.654 330.39C269.794 327.293 271.457 325.917 270.794 324.795C270.617 324.436 270.305 324.255 270.08 324.477C269.765 324.744 269.985 325.416 269.985 325.416L268.733 325.363C268.733 325.363 268.163 323.526 269.241 322.773C270.05 322.152 271.209 322.695 271.873 323.818C272.891 325.434 272.08 326.502 272.207 327.666L273.6 326.646L274.618 328.262L271.654 330.39Z" fill="white"/>
<path opacity="0.1" d="M231.86 264.044L221.147 289.603C220.102 292.235 218.655 294.731 217.076 296.957L215.634 298.782L209.548 306.57L209.642 305.855L210.817 296.695L211.144 294.416C211.653 291.602 212.431 288.878 213.52 286.336L226.593 255.156L231.86 264.044Z" fill="#4A6193"/>
<path d="M208.187 122.44L213.115 286.646C213.187 289.509 212.991 292.28 212.481 295.094L211.931 297.372L209.635 306.973L209.415 306.301L206.742 297.474L206.129 295.324C205.431 292.547 205.046 289.727 204.929 286.998L200.001 122.792C200.008 121.674 200.372 120.603 201.093 119.802C201.813 119.002 202.8 118.516 204.008 118.479C204.902 118.484 205.705 118.757 206.463 119.165C207.353 119.841 208.151 121.009 208.187 122.44Z" fill="white" stroke="#4A6193" stroke-width="1.5" stroke-miterlimit="10" stroke-linecap="round" stroke-linejoin="round"/>
<path d="M206.608 297.428L209.501 306.928L211.887 297.282L206.608 297.428Z" fill="#4A6193"/>
<path opacity="0.2" d="M208.187 122.44L213.115 286.646C213.187 289.509 212.991 292.28 212.481 295.095L211.931 297.372L209.635 306.973L209.415 306.301C210.266 284.482 205.943 131.013 205.365 123.272C205.199 121.125 205.654 119.786 206.463 119.165C207.354 119.841 208.151 121.009 208.187 122.44Z" fill="#AED3EF"/>
<path d="M61.1462 99.3976C61.2306 99.6675 61.2264 99.8911 61.3572 100.073C62.2135 102.101 64.6431 103.713 67.4693 105.645C70.9156 107.902 74.5896 109.939 78.4071 111.487C84.3548 113.925 121.462 129.073 128.313 131.081C135.075 133.043 152.433 139.99 174.912 136.299C175.406 136.219 175.899 136.139 176.393 136.059C181.016 135.207 187.525 133.988 189.009 128.782C190.203 124.779 188.145 120.088 185.061 117.57C176.342 110.294 162.81 99.7061 133.303 94.1844C133.303 94.1844 113.967 90.1514 96.2421 90.801C78.517 91.4506 68.1355 94.028 64.8073 94.994C62.7825 95.6267 60.4798 96.7907 61.1462 99.3976Z" fill="white" stroke="#4A6193" stroke-width="1.5" stroke-miterlimit="10" stroke-linecap="round" stroke-linejoin="round"/>
<path d="M61.3108 100.161C62.1671 102.19 64.5967 103.802 67.4229 105.734C70.8692 107.99 74.5432 110.028 78.3607 111.576C84.3084 114.014 121.416 129.162 128.267 131.169C135.029 133.131 152.387 140.079 174.866 136.388C163.139 136.793 151.235 134.734 146.827 133.667C141.44 132.313 132.852 127.588 130.106 126.15C127.36 124.712 118.367 117.743 109.896 111.5C101.426 105.257 89.7882 100.967 84.0092 99.0687C78.2766 97.0819 70.3123 97.1998 67.351 97.6807C64.5712 98.0308 64.4407 97.8496 61.3108 100.161Z" fill="#B7CFFD" stroke="#4A6193" stroke-width="1.5" stroke-miterlimit="10" stroke-linecap="round" stroke-linejoin="round"/>
<path d="M170.47 118.056C171.342 116.392 169.589 113.756 166.556 112.167C163.522 110.578 160.357 110.638 159.486 112.302C158.615 113.965 160.367 116.601 163.4 118.19C166.434 119.779 169.599 119.719 170.47 118.056Z" fill="#D8DEE6"/>
<path fill-rule="evenodd" clip-rule="evenodd" d="M291.157 31.9618L375.768 199.155C378.248 204.145 376.531 210.116 371.753 212.95L335.048 234.416C330.977 236.822 318.966 241.99 312.269 229.09L223.291 49.4303C216.88 36.4426 224.832 30.3287 233.22 28.6846L275.617 23.9856C281.903 22.9896 288.22 26.1699 291.157 31.9618Z" fill="#B7CFFD" stroke="#4A6193" stroke-width="1.5" stroke-miterlimit="10" stroke-linecap="round" stroke-linejoin="round"/>
<path fill-rule="evenodd" clip-rule="evenodd" d="M297.727 28.1569L382.339 195.35C384.819 200.341 383.102 206.312 378.325 209.145L336.489 233.658C330.815 236.976 323.558 234.819 320.592 228.932L227.411 40.7303C224.901 35.644 227.949 29.577 233.602 28.5667L282.217 20.2763C288.473 19.1848 294.79 22.365 297.727 28.1569Z" fill="white" stroke="#4A6193" stroke-width="1.5" stroke-miterlimit="10" stroke-linecap="round" stroke-linejoin="round"/>
<path d="M355.662 214.488C358.07 213.517 358.783 209.657 357.254 205.867C355.725 202.076 352.535 199.79 350.127 200.761C347.72 201.732 347.007 205.592 348.535 209.382C350.064 213.173 353.255 215.458 355.662 214.488Z" fill="white" stroke="#4A6193" stroke-width="1.5" stroke-miterlimit="10" stroke-linecap="round" stroke-linejoin="round"/>
<path fill-rule="evenodd" clip-rule="evenodd" d="M320.309 210.706L371.143 184.152C372.392 183.453 372.869 181.945 372.265 180.666L300.925 40.5655C300.409 39.5733 299.284 38.9787 298.108 39.2366L240.525 51.0239C239.349 51.2818 238.784 52.5026 239.299 53.4948L316.89 209.458C317.427 210.862 318.964 211.435 320.309 210.706Z" fill="white" stroke="#4A6193" stroke-width="1.5" stroke-miterlimit="10" stroke-linecap="round" stroke-linejoin="round"/>
<path fill-rule="evenodd" clip-rule="evenodd" d="M260.588 35.3161C260.956 35.8306 261.426 35.9993 262.029 35.9181L268.8 34.4589C269.402 34.3777 269.674 33.5614 269.336 33.1425C268.997 32.7236 268.402 32.4886 267.924 32.6359L261.153 34.0954C260.55 34.1766 260.22 34.8017 260.588 35.3161Z" fill="#4A6193"/>
<path d="M325.451 108.244L283.765 122.037C281.596 122.81 278.75 121.385 277.506 119.048L259.953 84.1715C258.775 81.7092 259.619 79.356 261.942 78.7445L305.329 68.0897C307.269 67.5961 309.799 69.0138 310.889 71.1894L326.867 102.994C328.016 105.36 327.363 107.655 325.451 108.244Z" fill="white" stroke="#4A6193" stroke-width="1.5" stroke-miterlimit="10" stroke-linecap="round" stroke-linejoin="round"/>
<path d="M325.451 108.244L325.15 107.604L283.367 121.427C282.412 121.721 281.243 121.663 280.243 121.134C279.272 120.701 278.5 119.893 277.984 118.9L260.431 84.0239C259.915 83.0317 259.841 82.1128 260.179 81.1716C260.451 80.3553 261.193 79.7079 262.244 79.3838L305.535 68.7585C306.425 68.5889 307.403 68.7059 308.307 69.2641C309.182 69.7268 309.925 70.4397 310.315 71.3659L326.419 103.236C326.905 104.133 326.979 105.052 326.803 105.838C326.627 106.625 326.01 107.339 325.15 107.604L325.451 108.244L325.753 108.883C326.804 108.559 327.488 107.72 327.796 106.683C328.104 105.646 327.913 104.345 327.28 102.971L311.3 71.167C310.697 69.888 309.616 68.7561 308.49 68.1612C307.336 67.4707 306.108 67.2214 305.056 67.5454L261.64 78.105C260.369 78.3924 259.465 79.1941 259.091 80.3559C258.687 81.4222 258.717 82.8779 259.475 84.3185L277.058 119.291C277.816 120.731 278.993 121.833 280.244 122.494C281.494 123.155 282.884 123.25 284.126 122.867L325.783 108.978L325.451 108.244Z" fill="#4A6193"/>
<path opacity="0.5" d="M302.635 90.5814C301.244 87.7663 299.082 85.5029 296.743 84.0264C294.404 82.5499 291.823 81.9852 289.596 82.5672C287.368 83.1492 285.906 84.8559 285.348 87.1207C284.791 89.3855 285.168 92.3039 286.654 95.0896C288.075 98.0003 290.363 100.329 292.767 101.681C295.202 103.128 297.753 103.597 299.951 102.92C302.149 102.242 303.515 100.565 303.948 98.234C304.469 96.1898 304.026 93.3965 302.635 90.5814Z" fill="#6797F6" stroke="#256BF6" stroke-width="1.5" stroke-miterlimit="10"/>
<path opacity="0.5" d="M313.242 85.951C311.608 82.6875 309.137 80.1011 306.423 78.4263C303.709 76.7515 300.753 75.9884 298.143 76.6882C295.534 77.3881 293.844 79.3743 293.279 81.9552C292.619 84.5655 293.113 87.8662 294.777 91.2252C296.44 94.5842 299.037 97.2368 301.846 98.8822C304.656 100.528 307.678 101.166 310.162 100.4C312.647 99.6339 314.337 97.6476 314.872 94.9712C315.341 92.4197 314.847 89.1189 313.242 85.951Z" fill="#6797F6" stroke="#256BF6" stroke-width="1.5" stroke-miterlimit="10"/>
<path d="M296.343 52.8611L251.368 62.4359C250.89 62.5832 250.14 62.1865 249.868 61.6426L247.991 57.9306C247.719 57.3867 247.983 56.8866 248.461 56.7393L293.679 47.6129C294.157 47.4656 294.686 47.8256 294.959 48.3695L296.622 51.7287C296.895 52.2726 296.726 52.7433 296.343 52.8611Z" fill="#A7B2C7"/>
<path d="M323.772 102.797L279.77 116.885L280.344 118.068L324.317 103.884L323.772 102.797Z" fill="#DBE3ED"/>
<path d="M314.15 105.868L279.77 116.885L280.344 118.068L314.695 106.955L314.15 105.868Z" fill="#256BF6"/>
<path d="M301.659 146.134L298.116 147.541C297.381 147.872 296.41 147.439 295.924 146.542L293.289 141.39C292.833 140.588 293.171 139.647 293.906 139.316L297.478 138.005C298.243 137.77 299.213 138.203 299.574 139.033L302.084 144.12C302.665 144.987 302.423 145.899 301.659 146.134Z" fill="#6797F6"/>
<path d="M301.658 146.135L301.445 145.782L297.902 147.188C297.615 147.276 297.204 147.299 296.954 147.167C296.608 147.064 296.424 146.807 296.211 146.454L293.605 141.397C293.421 141.14 293.399 140.728 293.531 140.478C293.634 140.133 293.891 139.949 294.148 139.765L297.721 138.454C298.007 138.365 298.419 138.343 298.698 138.571C299.044 138.674 299.228 138.931 299.442 139.284L301.951 144.37C302.135 144.627 302.158 145.039 302.026 145.289C301.923 145.635 301.761 145.789 301.408 146.003L301.658 146.135L301.872 146.487C302.35 146.34 302.548 145.965 302.717 145.495C302.886 145.024 302.834 144.517 302.561 143.973L300.052 138.886C299.779 138.342 299.345 137.953 298.874 137.784C298.404 137.616 297.963 137.542 297.485 137.69L293.913 139C293.435 139.147 293.141 139.552 293.038 139.897C292.869 140.368 292.921 140.875 293.193 141.419L295.828 146.572C296.1 147.116 296.535 147.505 297.005 147.674C297.476 147.843 297.917 147.916 298.395 147.769L301.938 146.363L301.658 146.135Z" fill="#256BF6"/>
<path d="M296.503 143.329L298.033 144.217C298.158 144.284 298.349 144.225 298.415 144.1L299.083 141.173C299.149 141.048 298.965 140.791 298.84 140.725C298.715 140.659 298.524 140.718 298.457 140.843L297.922 143.519L296.672 142.858C296.547 142.792 296.356 142.851 296.29 142.976C296.223 143.101 296.283 143.292 296.503 143.329Z" fill="white"/>
<path d="M333.916 125.517L304.248 136.546L303.49 135.105L333.187 124.172L333.916 125.517Z" fill="#D3DDF2"/>
<path d="M335.793 129.228L306.184 140.449L305.426 139.009L335.034 127.788L335.793 129.228Z" fill="#D3DDF2"/>
<path d="M319.609 139.868L308.215 144.323L307.457 142.882L318.881 138.523L319.609 139.868Z" fill="#D3DDF2"/>
<path d="M319.787 182.194L316.302 183.792C315.567 184.123 314.626 183.785 314.236 182.859L311.601 177.706C311.145 176.905 311.453 175.869 312.188 175.537L315.672 173.94C316.407 173.609 317.378 174.042 317.739 174.873L320.248 179.959C320.734 180.856 320.492 181.767 319.787 182.194Z" fill="#6797F6"/>
<path d="M319.787 182.195L319.573 181.842L316.089 183.439C315.802 183.527 315.39 183.55 315.14 183.418C314.795 183.315 314.611 183.058 314.397 182.705L311.792 177.648C311.608 177.391 311.586 176.979 311.718 176.729C311.821 176.383 311.953 176.133 312.335 176.016L315.82 174.418C316.106 174.33 316.518 174.307 316.768 174.44C317.018 174.572 317.297 174.8 317.481 175.057L319.991 180.143C320.175 180.4 320.197 180.812 320.065 181.062C319.962 181.408 319.83 181.658 319.448 181.776L319.787 182.195L320 182.547C320.448 182.305 320.676 182.025 320.845 181.554C320.918 181.113 320.962 180.576 320.69 180.032L318.179 174.946C317.907 174.402 317.473 174.013 317.003 173.844C316.532 173.675 316.091 173.602 315.643 173.845L312.158 175.442C311.71 175.685 311.482 175.965 311.313 176.435C311.145 176.906 311.226 177.509 311.469 177.957L314.104 183.109C314.376 183.653 314.81 184.043 315.28 184.211C315.751 184.38 316.193 184.454 316.641 184.211L320.125 182.614L319.787 182.195Z" fill="#256BF6"/>
<path d="M350.866 159.114L322.229 172.128L321.471 170.687L350.233 157.739L350.866 159.114Z" fill="#D3DDF2"/>
<path d="M352.743 162.826L324.165 176.031L323.407 174.59L352.014 161.48L352.743 162.826Z" fill="#D3DDF2"/>
<path d="M337.133 174.649L326.071 179.838L325.313 178.398L336.376 173.208L337.133 174.649Z" fill="#D3DDF2"/>
<path d="M329.957 200.93L329.655 200.29L326.326 202.049C326.069 202.233 325.848 202.196 325.598 202.064C325.348 201.932 325.194 201.77 325.135 201.579L322.529 196.522C322.47 196.331 322.412 196.14 322.448 195.92C322.485 195.699 322.617 195.449 322.903 195.361L326.263 193.697C326.549 193.609 326.74 193.55 326.99 193.682C327.241 193.814 327.395 193.976 327.454 194.167L329.964 199.253C330.022 199.444 330.081 199.636 330.045 199.856C330.008 200.077 329.876 200.327 329.589 200.415L329.957 200.93L330.259 201.569C330.707 201.326 331.001 200.921 331.141 200.355C331.28 199.789 331.199 199.186 330.868 198.451L328.358 193.365C328.056 192.725 327.497 192.27 327.026 192.101C326.526 191.837 326.019 191.889 325.57 192.131L322.212 193.795C321.763 194.038 321.374 194.472 321.234 195.038C321.095 195.604 321.206 196.302 321.507 196.942L324.142 202.094C324.444 202.734 325.003 203.19 325.503 203.454C326.003 203.718 326.606 203.637 327.054 203.394L330.384 201.635L329.957 200.93Z" fill="#D3DDF2"/>
<path d="M360.367 176.695L332.246 190.701L331.487 189.261L359.638 175.35L360.367 176.695Z" fill="#D3DDF2"/>
<path d="M362.214 180.311L334.277 194.575L333.519 193.135L361.582 178.937L362.214 180.311Z" fill="#D3DDF2"/>
<path d="M346.936 192.87L336.117 198.507L335.359 197.067L346.208 191.525L346.936 192.87Z" fill="#D3DDF2"/>
<path d="M322.227 208.44L286.7 137.666C286.427 137.122 286.346 136.519 286.515 136.048C286.684 135.578 287.044 135.048 287.617 134.872L333.25 118.606C333.728 118.458 334.265 118.502 334.765 118.767C335.265 119.031 335.603 119.45 335.846 119.898L368.135 184.241C368.348 184.594 368.628 184.822 368.885 184.638C369.076 184.579 369.15 184.138 368.937 183.785L336.677 119.537C336.191 118.641 335.544 117.898 334.794 117.502C334.044 117.105 333.286 117.025 332.522 117.261L286.859 133.431C285.999 133.696 285.477 134.38 285.206 135.196C284.934 136.013 285.038 137.027 285.553 138.019L321.11 208.889C321.323 209.242 321.698 209.44 321.985 209.352C322.367 209.234 322.44 208.793 322.227 208.44Z" fill="#4A6193"/>
<path d="M344.141 136.282L296.356 155.409L304.768 172.174L351.766 151.511L344.141 136.282Z" fill="#D3DDF2"/>
<path d="M360.945 144.287L312.903 164.958L304.52 148.287L353.254 129.182L360.945 144.287Z" fill="white"/>
<path d="M360.945 144.286L360.761 144.029L312.976 164.516L304.924 148.581L353.181 129.623L360.688 144.471L360.945 144.286L360.761 144.029L360.945 144.286L361.136 144.228L353.541 129.093C353.511 128.998 353.386 128.932 353.386 128.932C353.261 128.866 353.261 128.866 353.165 128.895L304.431 148.001C304.336 148.03 304.365 148.126 304.269 148.155C304.174 148.185 304.233 148.376 304.358 148.442L312.741 165.112C312.77 165.207 312.896 165.274 312.925 165.369C313.05 165.435 313.05 165.435 313.145 165.406L361.188 144.735C361.283 144.705 361.283 144.705 361.254 144.61C361.224 144.514 361.195 144.419 361.195 144.419L360.945 144.286Z" fill="#D3DDF2"/>
<path d="M314.565 179.514L316.065 180.307C316.19 180.373 316.381 180.314 316.418 180.094L316.931 177.005C316.968 176.785 316.813 176.623 316.688 176.557C316.563 176.491 316.372 176.55 316.306 176.675L315.8 179.447L314.55 178.786C314.425 178.719 314.233 178.779 314.197 178.999C314.351 179.161 314.44 179.448 314.565 179.514Z" fill="white"/>
<path d="M351.427 135.815L322.598 147.527L321.869 146.182L350.727 134.565L351.427 135.815Z" fill="#D3DDF2"/>
<path d="M353.179 139.46L324.504 151.335L323.776 149.99L352.575 138.181L353.179 139.46Z" fill="#D3DDF2"/>
<path d="M337.525 150.46L326.411 155.142L325.682 153.797L336.796 149.115L337.525 150.46Z" fill="#D3DDF2"/>
<path d="M356.356 127.702C355.782 126.519 354.855 125.549 353.921 124.895C353.296 124.565 352.7 124.33 352.068 124.315L352.016 123.808L350.7 124.632L350.605 124.662C349.995 125.059 349.568 125.714 349.422 126.596C349.209 127.603 349.497 128.875 350.071 130.058C350.674 131.337 351.572 132.212 352.602 132.837C353.602 133.365 354.609 133.578 355.44 133.217C355.535 133.188 355.631 133.158 355.726 133.129L357.042 132.305L356.703 131.886C356.835 131.636 356.872 131.415 356.88 131.099C357.122 130.187 356.959 128.981 356.356 127.702Z" fill="#6797F6" stroke="#256BF6" stroke-width="1.5" stroke-miterlimit="10" stroke-linecap="round" stroke-linejoin="round"/>
<path d="M357.701 126.974C357.127 125.791 356.2 124.821 355.266 124.167C354.361 123.609 353.258 123.425 352.398 123.69C351.568 124.051 350.98 124.86 350.863 125.838C350.65 126.845 350.937 128.117 351.512 129.3C352.115 130.579 353.013 131.454 354.042 132.078C355.042 132.607 356.05 132.82 356.88 132.459C357.711 132.098 358.203 131.319 358.416 130.311C358.533 129.333 358.275 128.157 357.701 126.974Z" fill="#6797F6" stroke="#256BF6" stroke-width="1.5" stroke-miterlimit="10"/>
<path d="M324.509 78.7106C322.573 74.8076 319.609 71.6401 316.52 69.767C314.585 68.5843 312.608 67.9388 310.681 67.8001L309.276 66.9773L306.358 68.7139L306.005 68.9274C303.984 70.1783 302.699 72.4585 302.259 75.1055C301.71 78.4142 302.411 82.3839 304.376 86.3824C306.341 90.3809 309.305 93.548 312.46 95.2961C315.549 97.1693 318.858 97.7187 321.666 96.6438C321.953 96.5554 322.21 96.3713 322.563 96.1579C322.658 96.1284 322.658 96.1285 322.754 96.0991L326.12 94.1195L325.943 92.1861C326.214 91.3699 326.486 90.5535 326.632 89.6711C327.145 86.583 326.445 82.6135 324.509 78.7106Z" fill="#6797F6" stroke="#256BF6" stroke-width="1.5" stroke-miterlimit="10" stroke-linecap="round" stroke-linejoin="round"/>
<path d="M327.684 76.7899C325.748 72.8869 322.783 69.7198 319.695 67.8467C316.606 65.9736 313.267 65.3283 310.46 66.4033C307.652 67.4782 305.918 70.001 305.368 73.3098C304.819 76.6185 305.52 80.5882 307.485 84.5867C309.45 88.5852 312.414 91.7528 315.569 93.5009C318.658 95.374 321.967 95.9235 324.775 94.8486C327.583 93.7736 329.192 91.1847 329.741 87.8759C330.32 84.6627 329.62 80.6928 327.684 76.7899Z" fill="#6797F6" stroke="#256BF6" stroke-width="1.5" stroke-miterlimit="10"/>
<path d="M354.549 130.666C353.518 128.682 354.797 128.078 354.466 127.343C354.378 127.057 354.157 127.02 353.966 127.079C353.679 127.167 353.826 127.645 353.826 127.645L352.944 127.499C352.944 127.499 352.716 126.418 353.546 126.057C354.215 125.851 354.87 126.277 355.297 126.982C355.841 128.07 355.165 128.593 355.151 129.225L356.268 128.776L356.813 129.864L354.549 130.666Z" fill="white"/>
<path d="M284.924 62.6605L254.783 69.4406C254.305 69.5879 253.556 69.1914 253.283 68.6475L252.407 66.8248C252.135 66.2809 252.37 65.6851 252.877 65.6334L283.076 59.0443C283.554 58.897 284.179 59.2271 284.451 59.771L285.298 61.4987C285.666 62.0132 285.401 62.5132 284.924 62.6605Z" fill="#A7B2C7"/>
<path opacity="0.5" d="M328.261 150.282L326.023 145.739C325.781 145.291 325.347 144.901 324.972 144.703C324.597 144.505 324.155 144.432 323.803 144.645L320.642 145.933C320.26 146.051 319.966 146.456 319.863 146.801C319.76 147.147 319.812 147.654 320.084 148.198L322.447 152.807C322.69 153.255 323.124 153.645 323.499 153.843C323.874 154.041 324.315 154.114 324.763 153.872L327.924 152.583C328.306 152.465 328.505 152.09 328.703 151.715C328.556 151.237 328.504 150.73 328.261 150.282Z" fill="#6797F6" stroke="#256BF6" stroke-width="1.5" stroke-miterlimit="10"/>
<path opacity="0.5" d="M320.829 152.991L318.864 148.993C318.621 148.544 318.342 148.317 317.967 148.118C317.592 147.92 317.276 147.913 316.893 148.031L314.181 149.076C313.799 149.194 313.571 149.473 313.468 149.819C313.366 150.164 313.388 150.576 313.631 151.025L315.596 155.023C315.839 155.471 316.147 155.795 316.493 155.898C316.868 156.096 317.28 156.074 317.566 155.985L320.25 154.844C320.632 154.726 320.764 154.476 320.867 154.131C321.095 153.851 321.043 153.344 320.829 152.991Z" fill="#6797F6" stroke="#256BF6" stroke-width="1.5" stroke-miterlimit="10"/>
<path d="M337.817 148.696L337.17 147.954C337.177 147.637 337.06 147.255 336.942 146.873L334.189 141.338C333.917 140.794 333.453 140.309 332.983 140.14C332.483 139.876 331.946 139.832 331.497 140.075L329.167 141.003L328.917 140.87L327.572 141.599C327.124 141.842 326.896 142.121 326.727 142.592C326.558 143.063 326.64 143.666 326.942 144.305L329.694 149.84C329.967 150.384 330.43 150.869 330.901 151.038C331.401 151.302 331.908 151.25 332.386 151.103L336.186 149.512C336.281 149.483 336.377 149.454 336.348 149.358L337.817 148.696Z" fill="#6797F6" stroke="#256BF6" stroke-width="1.5" stroke-miterlimit="10" stroke-linecap="round" stroke-linejoin="round"/>
<path d="M338.257 146.049L335.505 140.514C335.232 139.97 334.769 139.485 334.298 139.316C333.798 139.052 333.261 139.008 332.813 139.251L328.984 140.745C328.506 140.893 328.212 141.297 328.043 141.768C327.874 142.239 327.955 142.842 328.257 143.481L331.01 149.015C331.282 149.559 331.745 150.044 332.216 150.213C332.716 150.477 333.223 150.426 333.701 150.278L337.501 148.688C337.979 148.541 338.273 148.137 338.442 147.666C338.641 147.291 338.655 146.659 338.257 146.049Z" fill="#6797F6" stroke="#256BF6" stroke-width="1.5" stroke-miterlimit="10"/>
<path d="M331.883 145.398L333.508 146.257C333.633 146.323 333.824 146.264 333.89 146.139L334.565 142.897C334.601 142.676 334.447 142.514 334.292 142.353C334.138 142.191 333.976 142.346 333.91 142.471L333.338 145.368L331.963 144.641C331.838 144.574 331.647 144.633 331.581 144.758C331.574 145.075 331.758 145.332 331.883 145.398Z" fill="white"/>
<path d="M317.631 84.9121L313.634 77.0399C313.178 76.2388 313.7 75.5548 314.516 75.8264L320.972 78.4402C321.693 78.7412 322.208 79.7336 321.973 80.3293L319.388 85.5215C318.999 85.9555 318.087 85.7132 317.631 84.9121Z" fill="white"/>
<path fill-rule="evenodd" clip-rule="evenodd" d="M690.9 29.9837L673.1 300.284C672.6 309.084 664.5 315.484 655.8 313.984L630.8 309.584L629.7 311.284C628.9 312.484 627.5 313.084 626.1 312.884L430 277.284C429 277.084 428.6 275.884 429.2 275.184L430 274.284L418.1 272.184C411.8 271.084 407.2 265.484 407.2 259.084L410.4 55.4837C410.5 48.9837 415.4 43.5841 421.9 42.8841L674.9 14.8841C683.9 13.8841 691.5 21.0837 690.9 29.9837Z" fill="#B7CFFD" stroke="#4A6193" stroke-width="2.5" stroke-miterlimit="10" stroke-linecap="round" stroke-linejoin="round"/>
<path fill-rule="evenodd" clip-rule="evenodd" d="M663.9 336.384L514.2 537.184C508.1 545.284 497.2 548.084 488 543.784C263.6 439.384 279 446.584 272.7 443.184C267.5 440.384 268.4 431.284 270.9 427.984C275.9 421.584 298.1 397.784 398.2 286.284C402.1 281.684 408.1 279.484 414.1 280.484L659.7 316.284C663.7 317.084 670.8 327.084 663.9 336.384Z" fill="#B7CFFD" stroke="#4A6193" stroke-width="2.5" stroke-miterlimit="10" stroke-linecap="round" stroke-linejoin="round"/>
<path fill-rule="evenodd" clip-rule="evenodd" d="M661.8 325.784L509.2 531.284C503.1 539.384 492.2 542.184 483 537.884L387.2 493.284C387.3 491.884 386.6 490.384 385.2 489.784L350.3 473.884C349 473.284 347.5 473.484 346.5 474.384L274.599 440.984C269.199 438.484 267.7 431.484 271.5 426.984L394.7 277.784C398.6 273.184 404.599 270.984 410.599 271.984L657.9 315.584C662.5 316.484 664.7 321.984 661.8 325.784Z" fill="white" stroke="#4A6193" stroke-width="2.5" stroke-miterlimit="10" stroke-linecap="round" stroke-linejoin="round"/>
<path fill-rule="evenodd" clip-rule="evenodd" d="M687.6 29.8841L669.8 300.184C669.3 308.984 661.2 315.384 652.5 313.884L627.5 309.484L626.4 311.184C625.6 312.384 624.2 312.984 622.8 312.784L426.7 277.184C425.7 276.984 425.3 275.784 425.9 275.084L426.7 274.184L414.8 272.084C408.5 270.984 403.9 265.384 403.9 258.984L407.1 55.3841C407.2 48.8841 412.1 43.484 418.6 42.784L671.6 14.784C680.5 13.784 688.1 20.9841 687.6 29.8841Z" fill="white" stroke="#4A6193" stroke-width="2" stroke-miterlimit="10" stroke-linecap="round" stroke-linejoin="round"/>
<path d="M382.8 382.884L481.2 415.084C483 415.684 483.7 417.883 482.6 419.483L432.8 484.584C431.5 486.284 429.3 486.883 427.4 485.983L333.8 445.384C331.7 444.484 331.1 441.884 332.5 440.184L377.5 384.584C378.7 382.884 380.8 382.284 382.8 382.884Z" fill="#DAE4FA" stroke="#4A6193" stroke-width="1.5" stroke-miterlimit="10" stroke-linecap="round" stroke-linejoin="round"/>
<path fill-rule="evenodd" clip-rule="evenodd" d="M679.2 32.9833L661.8 294.384C661.7 296.384 659.8 297.883 657.8 297.583L428 260.384L413.1 257.983C411.4 257.683 410.2 256.283 410.2 254.583L413 59.1835C413 57.4835 414.3 55.9836 416.1 55.7836L646.5 32.2836L675.4 29.3837C677.5 29.1837 679.4 30.8833 679.2 32.9833Z" fill="#B7CFFD" stroke="#4A6193" stroke-width="1.5" stroke-miterlimit="10" stroke-linecap="round" stroke-linejoin="round"/>
<path d="M530.9 40.3838C532.004 40.3838 532.9 39.2645 532.9 37.8838C532.9 36.5031 532.004 35.3838 530.9 35.3838C529.795 35.3838 528.9 36.5031 528.9 37.8838C528.9 39.2645 529.795 40.3838 530.9 40.3838Z" fill="#474F59"/>
<path fill-rule="evenodd" clip-rule="evenodd" d="M646.699 352.983C645.599 352.183 645.399 350.683 646.199 349.583L651.099 342.983C651.899 341.883 653.4 341.683 654.5 342.483C655.6 343.283 655.8 344.784 655 345.884L650.099 352.483C649.299 353.583 647.799 353.783 646.699 352.983Z" fill="#4A6193"/>
<path fill-rule="evenodd" clip-rule="evenodd" d="M633 371.483C631.9 370.683 631.7 369.183 632.5 368.083L637.4 361.483C638.2 360.383 639.7 360.183 640.8 360.983C641.9 361.783 642.1 363.284 641.3 364.384L636.4 370.983C635.6 372.083 634.1 372.283 633 371.483Z" fill="#4A6193"/>
<path d="M456.8 366.084L467.7 369.184C468.4 369.384 469.5 368.984 470.1 368.184L479.5 356.784C480.1 356.084 480 355.284 479.3 355.184L468.3 352.284C467.6 352.084 466.6 352.484 466 353.284L456.7 364.484C456.1 365.184 456.2 365.884 456.8 366.084Z" fill="#4A6193"/>
<path d="M473.3 370.784L484.599 373.984C485.299 374.184 486.4 373.784 487 372.984L496.599 361.384C497.199 360.684 497.1 359.884 496.4 359.684L484.9 356.684C484.2 356.484 483.1 356.884 482.5 357.684L473.099 369.084C472.499 369.784 472.6 370.584 473.3 370.784Z" fill="#4A6193"/>
<path d="M490.5 375.584L502.3 378.984C503.1 379.184 504.2 378.784 504.8 377.984L514.5 366.084C515.1 365.284 515 364.584 514.2 364.384L502.2 361.284C501.5 361.084 500.4 361.484 499.7 362.284L490.1 373.984C489.7 374.684 489.8 375.384 490.5 375.584Z" fill="#4A6193"/>
<path d="M508.5 380.684L520.9 384.184C521.7 384.384 522.9 383.984 523.5 383.184L533.4 370.984C534 370.184 533.899 369.384 533.099 369.184L520.599 365.884C519.799 365.684 518.699 366.084 518.099 366.884L508.3 378.884C507.6 379.684 507.7 380.484 508.5 380.684Z" fill="#4A6193"/>
<path d="M411.2 353.083L420.9 355.784C421.5 355.984 422.5 355.584 423.1 354.884L432 344.183C432.6 343.483 432.5 342.783 431.9 342.683L422.1 340.083C421.5 339.883 420.5 340.383 420 340.983L411.2 351.483C410.5 352.283 410.6 352.983 411.2 353.083Z" fill="#4A6193"/>
<path d="M425.8 357.284L435.8 360.084C436.4 360.284 437.4 359.884 438 359.184L447.1 348.284C447.7 347.584 447.6 346.884 447 346.684L436.8 343.984C436.2 343.784 435.2 344.184 434.6 344.884L425.6 355.684C425.1 356.384 425.2 357.084 425.8 357.284Z" fill="#4A6193"/>
<path d="M441 361.584L451.4 364.584C452.1 364.784 453.1 364.384 453.7 363.684L462.9 352.484C463.5 351.784 463.4 351.084 462.7 350.884L452.1 348.084C451.4 347.884 450.4 348.284 449.9 348.984L440.8 359.984C440.3 360.684 440.3 361.384 441 361.584Z" fill="#4A6193"/>
<path d="M496.3 355.284L508.099 358.284C508.899 358.484 509.999 357.984 510.599 357.284L520.2 345.584C520.8 344.884 520.7 344.084 519.9 343.884L508 341.084C507.3 340.884 506.199 341.384 505.599 342.084L496.099 353.584C495.499 354.384 495.6 355.084 496.3 355.284Z" fill="#4A6193"/>
<path d="M514.1 359.884L526.4 363.084C527.2 363.284 528.3 362.884 529 362.084L538.8 350.084C539.4 349.284 539.3 348.584 538.5 348.384L526.1 345.483C525.3 345.283 524.2 345.783 523.6 346.483L514 358.284C513.2 358.884 513.4 359.684 514.1 359.884Z" fill="#4A6193"/>
<path d="M532.7 364.684L545.5 367.983C546.3 368.183 547.5 367.783 548.1 366.983L558.1 354.784C558.7 353.984 558.6 353.183 557.7 352.983L544.7 349.884C543.9 349.684 542.7 350.184 542.1 350.884L532.3 362.884C531.8 363.684 531.9 364.484 532.7 364.684Z" fill="#4A6193"/>
<path d="M580.2 353.584L594.2 356.784C595.1 356.984 596.4 356.484 597 355.684L607.2 343.084C607.8 342.284 607.6 341.484 606.7 341.284L592.6 338.284C591.7 338.084 590.5 338.584 589.8 339.384L579.7 351.784C579.2 352.584 579.3 353.384 580.2 353.584Z" fill="#4A6193"/>
<path d="M568.3 372.084L578.5 359.584C579.1 358.784 578.999 357.984 578.099 357.784L564.599 354.584C563.799 354.384 562.6 354.884 561.9 355.584L551.9 367.884C551.3 368.684 551.4 369.484 552.3 369.684L565.7 373.084C566.4 373.284 567.6 372.884 568.3 372.084Z" fill="#4A6193"/>
<path d="M546.099 328.483L533.7 325.884C532.9 325.684 531.8 326.184 531.2 326.884L521.7 338.483C521.1 339.183 521.2 339.984 522 340.184L534.2 342.983C535 343.183 536.1 342.683 536.7 341.983L546.4 330.184C547.1 329.384 546.899 328.583 546.099 328.483Z" fill="#4A6193"/>
<path d="M492.8 317.084L481.9 314.784C481.2 314.684 480.199 315.084 479.599 315.784L470.599 326.684C469.999 327.384 470.1 328.084 470.8 328.184L481.599 330.684C482.299 330.884 483.3 330.384 483.9 329.684L493.099 318.584C493.599 317.984 493.5 317.284 492.8 317.084Z" fill="#4A6193"/>
<path d="M476.4 313.684L465.9 311.483C465.2 311.383 464.3 311.783 463.7 312.483L454.8 323.184C454.2 323.884 454.3 324.584 455 324.684L465.4 327.084C466.1 327.284 467.099 326.784 467.599 326.084L476.599 315.184C477.199 314.484 477.1 313.784 476.4 313.684Z" fill="#4A6193"/>
<path d="M460.7 310.284L450.6 308.184C450 308.084 449 308.484 448.5 309.184L439.8 319.684C439.2 320.384 439.3 320.984 439.9 321.184L449.9 323.483C450.5 323.583 451.5 323.183 452.1 322.483L461 311.884C461.4 311.084 461.3 310.484 460.7 310.284Z" fill="#4A6193"/>
<path d="M397.099 349.083L406.4 351.683C407 351.883 407.9 351.484 408.5 350.784L417.3 340.284C417.9 339.584 417.799 338.984 417.199 338.784L407.8 336.284C407.2 336.084 406.299 336.583 405.699 337.183L397 347.483C396.5 348.283 396.499 348.983 397.099 349.083Z" fill="#4A6193"/>
<path d="M479.2 350.884L490.5 353.784C491.2 353.984 492.3 353.484 492.9 352.784L502.3 341.284C502.9 340.584 502.8 339.784 502.1 339.684L490.7 336.983C490 336.783 488.9 337.283 488.3 337.983L479 349.284C478.4 349.984 478.5 350.684 479.2 350.884Z" fill="#4A6193"/>
<path d="M527.6 324.483L515.7 321.983C515 321.783 513.9 322.283 513.3 322.983L503.9 334.384C503.3 335.084 503.4 335.783 504.2 335.983L515.9 338.684C516.7 338.884 517.8 338.384 518.4 337.684L527.9 326.084C528.5 325.384 528.4 324.683 527.6 324.483Z" fill="#4A6193"/>
<path d="M509.8 320.784L498.4 318.384C497.7 318.184 496.6 318.684 496.1 319.384L486.9 330.483C486.3 331.183 486.4 331.884 487.1 332.084L498.4 334.684C499.1 334.884 500.2 334.384 500.8 333.684L510.1 322.384C510.7 321.584 510.6 320.884 509.8 320.784Z" fill="#4A6193"/>
<path d="M383.5 345.284L392.4 347.784C393 347.984 393.9 347.584 394.4 346.884L403 336.584C403.5 335.884 403.5 335.284 402.9 335.084L393.8 332.684C393.2 332.584 392.3 332.984 391.8 333.584L383.3 343.684C382.9 344.484 383 345.084 383.5 345.284Z" fill="#4A6193"/>
<path d="M389.8 327.884L398.7 330.184C399.3 330.284 400.2 329.884 400.7 329.284L409.2 319.084C409.7 318.484 409.7 317.784 409.1 317.684L400.1 315.584C399.5 315.484 398.6 315.884 398.1 316.484L389.7 326.484C389.2 327.084 389.2 327.784 389.8 327.884Z" fill="#4A6193"/>
<path d="M445.6 307.084L435.9 304.984C435.3 304.884 434.4 305.284 433.8 305.884L425.2 316.184C424.7 316.884 424.7 317.484 425.3 317.584L434.9 319.784C435.5 319.884 436.5 319.484 437 318.884L445.7 308.484C446.2 307.884 446.2 307.184 445.6 307.084Z" fill="#4A6193"/>
<path d="M416.9 300.984L407.9 299.084C407.3 298.984 406.4 299.384 405.9 299.984L397.6 309.884C397.1 310.484 397.1 311.084 397.7 311.284L406.6 313.384C407.2 313.484 408.1 313.084 408.6 312.484L417 302.484C417.6 301.784 417.5 301.184 416.9 300.984Z" fill="#4A6193"/>
<path d="M431 303.984L421.6 301.984C421 301.884 420.1 302.284 419.6 302.884L411.1 312.984C410.6 313.584 410.6 314.284 411.2 314.384L420.5 316.484C421.1 316.584 422 316.184 422.6 315.584L431.2 305.384C431.6 304.784 431.6 304.184 431 303.984Z" fill="#4A6193"/>
<path d="M585.599 336.884L572.099 333.984C571.299 333.784 570.1 334.284 569.4 335.084L559.5 347.184C558.9 347.984 559 348.784 559.9 348.884L573.3 351.984C574.2 352.184 575.4 351.684 576 350.884L586 338.484C586.7 337.784 586.499 336.984 585.599 336.884Z" fill="#4A6193"/>
<path d="M501.5 383.184L484.599 378.284C483.899 378.084 482.8 378.484 482.2 379.284L472.599 390.984C471.999 391.684 472.1 392.484 472.8 392.784L489.5 397.984C490.3 398.184 491.4 397.784 492 396.984L501.8 384.984C502.4 384.184 502.3 383.384 501.5 383.184Z" fill="#4A6193"/>
<path d="M534.5 402.984L520.599 398.784C519.799 398.584 518.6 398.984 518 399.784L514.599 403.884C513.999 404.684 514.1 405.484 514.9 405.784L528.8 410.084C529.6 410.384 530.8 409.884 531.5 409.084L534.9 404.884C535.5 404.084 535.3 403.284 534.5 402.984Z" fill="#4A6193"/>
<path d="M478.8 376.584L411.9 357.284C411.3 357.084 410.3 357.484 409.8 358.184L400.9 368.784C400.3 369.484 400.4 370.184 401 370.384L467 390.884C467.7 391.084 468.8 390.684 469.4 389.984L479 378.284C479.6 377.584 479.5 376.784 478.8 376.584Z" fill="#4A6193"/>
<path d="M521 388.784L507.599 384.884C506.799 384.684 505.699 385.084 505.099 385.884L495.2 397.884C494.6 398.684 494.7 399.484 495.4 399.684L508.599 403.784C509.399 403.984 510.5 403.584 511.2 402.784L521.2 390.484C521.9 389.784 521.8 388.984 521 388.784Z" fill="#4A6193"/>
<path d="M407.099 355.884L393.5 351.984C392.9 351.784 392 352.184 391.5 352.884L382.8 363.284C382.2 363.984 382.3 364.584 382.8 364.784L396.199 368.984C396.799 369.184 397.7 368.784 398.3 368.084L407.199 357.484C407.699 356.684 407.699 356.084 407.099 355.884Z" fill="#4A6193"/>
<path d="M373.2 346.084L364.7 343.584C364.2 343.384 363.3 343.784 362.8 344.484L354.4 354.384C353.9 354.984 353.9 355.684 354.4 355.784L362.8 358.384C363.3 358.584 364.2 358.184 364.8 357.484L373.3 347.384C373.7 346.884 373.7 346.184 373.2 346.084Z" fill="#4A6193"/>
<path d="M389 350.584L377.6 347.284C377 347.084 376.2 347.484 375.6 348.184L367.1 358.284C366.6 358.884 366.6 359.584 367.1 359.784L378.4 363.284C379 363.484 379.9 363.084 380.4 362.384L389.1 352.084C389.5 351.484 389.5 350.784 389 350.584Z" fill="#4A6193"/>
<path d="M628.9 345.984L614.1 342.884C613.2 342.684 611.9 343.184 611.3 343.984L601 356.684C600.3 357.484 600.6 358.284 601.5 358.484L616.1 361.884C617 362.084 618.3 361.584 619 360.784L629.4 347.784C630.1 347.084 629.8 346.184 628.9 345.984Z" fill="#4A6193"/>
<path d="M612.8 365.984L585 359.384C584.1 359.184 582.9 359.684 582.2 360.484L572 373.084C571.4 373.884 571.5 374.684 572.4 374.984L599.9 382.084C600.8 382.284 602.1 381.884 602.8 380.984L613.3 367.984C614 366.984 613.8 366.184 612.8 365.984Z" fill="#4A6193"/>
<path d="M554.9 409.484L540.3 405.084C539.5 404.784 538.199 405.284 537.599 406.084L534.4 409.984C533.7 410.784 533.9 411.684 534.7 411.884L549.2 416.384C550.1 416.684 551.3 416.184 552 415.384L555.2 411.384C556 410.684 555.8 409.784 554.9 409.484Z" fill="#4A6193"/>
<path d="M596.7 385.984L559.3 376.184C558.4 375.984 557.199 376.384 556.599 377.184L546.4 389.684C545.8 390.484 545.9 391.284 546.8 391.584L583.8 402.084C584.7 402.384 586 401.884 586.7 401.084L597.2 387.984C597.8 387.084 597.6 386.184 596.7 385.984Z" fill="#4A6193"/>
<path d="M576.5 415.684L561.2 411.084C560.3 410.784 559.1 411.284 558.4 412.084L554.9 416.384C554.2 417.184 554.4 418.084 555.3 418.384L570.5 423.084C571.4 423.384 572.7 422.884 573.4 422.084L576.9 417.684C577.6 416.784 577.4 415.884 576.5 415.684Z" fill="#4A6193"/>
<path d="M354.7 337.084L379.1 343.984C379.7 344.184 380.5 343.784 381.1 343.084L389.6 332.984C390.1 332.384 390.1 331.684 389.6 331.584L364.9 325.084C364.4 324.984 363.5 325.384 363 325.984L354.8 335.684C354.2 336.284 354.1 336.984 354.7 337.084Z" fill="#4A6193"/>
<path d="M431.9 338.683L441.9 341.284C442.5 341.484 443.5 340.984 444.1 340.384L453.1 329.583C453.7 328.883 453.6 328.183 452.9 328.083L442.8 325.683C442.2 325.483 441.2 325.983 440.6 326.583L431.8 337.183C431.2 337.883 431.3 338.583 431.9 338.683Z" fill="#4A6193"/>
<path d="M360.4 342.384L352.2 339.984C351.7 339.884 350.8 340.184 350.3 340.884L342 350.684C341.5 351.284 341.5 351.984 342 352.084L350.1 354.584C350.6 354.784 351.5 354.384 352 353.784L360.4 343.884C360.9 343.184 360.9 342.584 360.4 342.384Z" fill="#4A6193"/>
<path d="M447.099 342.584L457.5 345.284C458.2 345.484 459.2 344.984 459.8 344.284L468.9 333.284C469.5 332.584 469.4 331.884 468.7 331.684L458.2 329.184C457.5 328.984 456.5 329.484 456 330.184L447 340.983C446.3 341.783 446.399 342.484 447.099 342.584Z" fill="#4A6193"/>
<path d="M417.3 334.984L426.9 337.484C427.5 337.684 428.5 337.184 429 336.584L437.8 325.984C438.4 325.284 438.3 324.684 437.7 324.484L428 322.184C427.4 322.084 426.5 322.484 425.9 323.084L417.2 333.484C416.7 334.184 416.7 334.784 417.3 334.984Z" fill="#4A6193"/>
<path d="M565.4 332.584L552.5 329.884C551.7 329.684 550.5 330.184 549.9 330.884L540.2 342.784C539.6 343.584 539.7 344.283 540.5 344.483L553.3 347.483C554.1 347.683 555.3 347.183 555.9 346.483L565.7 334.384C566.4 333.484 566.3 332.684 565.4 332.584Z" fill="#4A6193"/>
<path d="M423.2 320.984L413.8 318.784C413.2 318.684 412.3 319.084 411.8 319.684L403.3 329.884C402.8 330.484 402.8 331.184 403.4 331.284L412.7 333.684C413.3 333.884 414.2 333.384 414.8 332.784L423.5 322.384C423.9 321.784 423.8 321.184 423.2 320.984Z" fill="#4A6193"/>
<path d="M379.9 307.184L393.2 310.284C393.8 310.384 394.6 309.984 395.2 309.384L403.5 299.484C404 298.884 404 298.284 403.4 298.184L390 295.284C389.5 295.184 388.6 295.584 388.1 296.184L380 305.784C379.4 306.484 379.4 307.084 379.9 307.184Z" fill="#4A6193"/>
<path d="M367.3 322.084L385.3 326.684C385.9 326.784 386.7 326.384 387.3 325.784L395.7 315.784C396.2 315.184 396.2 314.484 395.6 314.384L377.3 310.084C376.8 309.984 375.9 310.384 375.4 310.984L367.2 320.684C366.8 321.384 366.8 321.984 367.3 322.084Z" fill="#4A6193"/>
<path d="M462.8 346.684L473.6 349.483C474.3 349.683 475.3 349.183 475.9 348.483L485.2 337.284C485.8 336.584 485.7 335.884 485 335.684L474.1 333.084C473.4 332.884 472.4 333.384 471.8 334.084L462.7 345.084C462.1 345.784 462.1 346.484 462.8 346.684Z" fill="#4A6193"/>
<path d="M542.5 402.484L557.099 406.884C557.999 407.184 559.2 406.684 559.9 405.884L562.9 402.184C563.6 401.384 563.4 400.484 562.5 400.284L547.8 396.084C547 395.884 545.699 396.284 545.099 397.084L542.199 400.684C541.499 401.384 541.6 402.284 542.5 402.484Z" fill="#4A6193"/>
<path d="M552.5 374.384L539.4 370.984C538.6 370.784 537.4 371.184 536.8 371.984L526.8 384.184C526.2 384.984 526.3 385.784 527.1 385.984L540 389.684C540.8 389.884 542 389.484 542.7 388.684L552.8 376.184C553.5 375.484 553.4 374.584 552.5 374.384Z" fill="#4A6193"/>
<path d="M595.9 334.184L610.1 337.084C611 337.284 612.3 336.784 612.9 335.984L617.5 330.284C618.1 329.484 617.9 328.684 617 328.484L602.8 325.684C601.9 325.484 600.7 325.984 600 326.784L595.5 332.284C594.8 333.184 595 333.984 595.9 334.184Z" fill="#4A6193"/>
<path d="M469 307.784L479.5 309.983C480.2 310.083 481.2 309.683 481.8 308.983L485.8 304.184C486.4 303.484 486.3 302.884 485.6 302.684L475 300.584C474.3 300.484 473.3 300.884 472.8 301.584L468.9 306.284C468.2 306.984 468.3 307.584 469 307.784Z" fill="#4A6193"/>
<path d="M424.599 298.484L434 300.484C434.6 300.584 435.499 300.184 436.099 299.584L439.9 295.084C440.4 294.484 440.4 293.784 439.8 293.684L430.3 291.784C429.7 291.684 428.8 292.084 428.3 292.684L424.599 297.184C423.999 297.784 423.999 298.384 424.599 298.484Z" fill="#4A6193"/>
<path d="M453.599 304.584L463.7 306.684C464.4 306.784 465.3 306.384 465.9 305.684L469.8 300.983C470.4 300.283 470.299 299.683 469.599 299.483L459.4 297.483C458.8 297.383 457.8 297.783 457.2 298.483L453.3 303.084C452.9 303.784 452.999 304.384 453.599 304.584Z" fill="#4A6193"/>
<path d="M438.8 301.483L448.599 303.483C449.199 303.583 450.2 303.183 450.7 302.483L454.599 297.884C455.099 297.184 455.1 296.583 454.5 296.483L444.7 294.584C444.1 294.484 443.099 294.884 442.599 295.584L438.8 300.184C438.2 300.684 438.2 301.383 438.8 301.483Z" fill="#4A6193"/>
<path d="M410.9 295.684L420 297.584C420.6 297.684 421.5 297.284 422 296.684L425.7 292.184C426.2 291.584 426.2 290.984 425.6 290.784L416.5 288.984C415.9 288.884 415 289.284 414.5 289.884L410.8 294.284C410.3 294.984 410.3 295.584 410.9 295.684Z" fill="#4A6193"/>
<path d="M575.4 329.884L588.9 332.684C589.8 332.884 590.999 332.384 591.599 331.584L596.099 326.084C596.699 325.284 596.5 324.484 595.7 324.384L582.099 321.684C581.199 321.484 580.1 321.984 579.4 322.784L575 328.184C574.4 328.984 574.5 329.684 575.4 329.884Z" fill="#4A6193"/>
<path d="M639.3 332.984L624.4 330.084C623.5 329.884 622.2 330.384 621.5 331.184L616.9 336.884C616.3 337.684 616.5 338.484 617.4 338.684L632.2 341.784C633.2 341.984 634.5 341.484 635.1 340.684L639.8 334.884C640.5 333.984 640.3 333.184 639.3 332.984Z" fill="#4A6193"/>
<path d="M392.9 291.884L406.4 294.684C407 294.784 407.8 294.384 408.4 293.784L412.099 289.384C412.599 288.784 412.6 288.184 412 288.084L398.4 285.384C397.9 285.284 397 285.684 396.5 286.284L392.9 290.584C392.3 291.184 392.3 291.784 392.9 291.884Z" fill="#4A6193"/>
<path d="M536.9 321.884L549.3 324.483C550.1 324.683 551.2 324.184 551.9 323.384L556.2 318.084C556.8 317.384 556.7 316.583 555.8 316.483L543.3 313.983C542.5 313.783 541.4 314.283 540.8 314.983L536.5 320.184C536 320.984 536.1 321.684 536.9 321.884Z" fill="#4A6193"/>
<path d="M484.9 311.084L495.9 313.384C496.6 313.484 497.6 313.084 498.2 312.384L502.3 307.483C502.9 306.783 502.8 306.083 502.1 305.983L491.1 303.784C490.4 303.684 489.4 304.084 488.8 304.784L484.8 309.584C484.2 310.284 484.3 310.884 484.9 311.084Z" fill="#4A6193"/>
<path d="M555.7 325.784L568.7 328.484C569.5 328.684 570.7 328.184 571.3 327.384L575.7 321.984C576.3 321.184 576.1 320.484 575.3 320.284L562.3 317.684C561.5 317.484 560.3 317.984 559.7 318.784L555.4 324.084C554.8 324.884 554.9 325.584 555.7 325.784Z" fill="#4A6193"/>
<path d="M501.599 314.483L513 316.884C513.7 317.084 514.8 316.584 515.4 315.884L519.599 310.884C520.199 310.184 520.1 309.484 519.3 309.284L507.8 306.983C507.1 306.883 506 307.283 505.4 307.983L501.3 312.983C500.7 313.683 500.899 314.383 501.599 314.483Z" fill="#4A6193"/>
<path d="M518.9 318.084L530.8 320.584C531.6 320.784 532.7 320.284 533.3 319.584L537.5 314.384C538.1 313.684 538 312.984 537.2 312.784L525.2 310.384C524.5 310.284 523.4 310.684 522.8 311.384L518.599 316.483C517.999 317.283 518.1 317.984 518.9 318.084Z" fill="#4A6193"/>
<path d="M510.3 233.884L424.8 223.583L427.1 83.3838C427.2 80.0838 428.8 77.3836 430.7 77.1836L511.7 72.5835C514.1 72.3835 515.9 75.2838 515.8 78.8838L510.3 233.884Z" fill="white"/>
<path d="M510.3 233.884V232.884L425.5 222.783L427.8 83.3836C427.8 81.9836 428.2 80.6835 428.7 79.7835C429.2 78.8835 429.9 78.2835 430.7 78.2835L511.6 73.7835C512.5 73.6835 513.3 74.1834 513.9 75.1834C514.5 76.0834 514.9 77.4832 514.8 78.9832L509.4 233.783L510.3 233.884V232.884V233.884L511.1 233.983L516.6 78.8836C516.7 76.7836 516.2 74.9833 515.3 73.5833C514.4 72.2833 513.2 71.3832 511.7 71.4832L430.7 76.1834C429.5 76.2834 428.4 77.1832 427.6 78.4832C426.8 79.7832 426.4 81.5836 426.3 83.3836L424 223.483C424 223.983 424.3 224.483 424.7 224.483L510.2 234.884C510.4 234.884 510.6 234.783 510.8 234.683C511 234.483 511.1 234.283 511.1 233.983L510.3 233.884Z" fill="#4A6193"/>
<path d="M427.3 89.1836L515.5 84.3838C516 84.3838 516.4 83.8836 516.4 83.1836C516.4 82.4836 516.099 82.0835 515.599 82.0835L427.4 87.0835C427 87.0835 426.7 87.5835 426.7 88.0835C426.6 88.7835 426.9 89.1836 427.3 89.1836Z" fill="#4A6193"/>
<path d="M433.3 82.3839C433.3 83.3839 432.7 84.1837 432 84.1837C431.3 84.1837 430.8 83.4836 430.8 82.4836C430.8 81.4836 431.4 80.6837 432 80.6837C432.8 80.5837 433.3 81.3839 433.3 82.3839Z" fill="#D3DDF2"/>
<path d="M436.8 82.1837C436.8 83.1837 436.2 83.9836 435.5 83.9836C434.8 83.9836 434.3 83.2838 434.3 82.2838C434.3 81.2838 434.9 80.4836 435.6 80.4836C436.3 80.3836 436.9 81.1837 436.8 82.1837Z" fill="#D3DDF2"/>
<path d="M495.1 198.483L438 194.284L438.1 191.684L495.2 195.684L495.1 198.483Z" fill="#D3DDF2"/>
<path d="M440.4 81.8838C440.4 82.8838 439.8 83.6837 439.1 83.7837C438.4 83.7837 437.9 83.0835 437.9 82.0835C437.9 81.0835 438.5 80.2836 439.2 80.1836C439.9 80.1836 440.4 80.8838 440.4 81.8838Z" fill="#D3DDF2"/>
<path d="M487.7 181.784L441.9 179.284C440.1 179.184 438.7 176.784 438.8 173.784L439.5 138.583C439.6 135.583 441.1 133.184 442.9 133.184H489.3C491.3 133.184 492.9 135.784 492.8 138.884L491.6 176.284C491.4 179.484 489.7 181.884 487.7 181.784Z" fill="white"/>
<path d="M487.7 181.784V180.784L441.8 178.384C441.1 178.384 440.5 177.883 440.1 177.083C439.6 176.283 439.4 175.183 439.4 173.983L440.1 138.784C440.1 137.584 440.5 136.384 440.9 135.684C441.4 134.884 442 134.483 442.7 134.483H489.1C489.9 134.483 490.5 134.984 491 135.784C491.5 136.584 491.8 137.783 491.8 139.083L490.7 176.483C490.7 177.783 490.3 178.884 489.7 179.684C489.1 180.484 488.4 180.884 487.7 180.884V181.784V182.784C489 182.884 490.1 182.083 490.9 180.983C491.7 179.783 492.2 178.184 492.3 176.384L493.5 138.983C493.6 137.183 493.1 135.484 492.4 134.284C491.6 133.084 490.5 132.284 489.3 132.284L442.9 132.384C441.8 132.384 440.7 133.184 440 134.284C439.3 135.484 438.8 136.984 438.8 138.684L438.1 173.784C438.1 175.484 438.5 177.084 439.1 178.184C439.8 179.384 440.8 180.184 441.9 180.184L487.7 182.784V181.784Z" fill="#4A6193"/>
<path d="M488.4 177.884L441.4 175.483V176.784L488.4 179.184V177.884Z" fill="white"/>
<path d="M463.6 176.684L441.4 175.583V176.784L463.6 177.884V176.684Z" fill="white"/>
<path opacity="0.5" d="M472 157.284C471.9 162.884 468.4 167.184 464.4 167.084C460.4 166.884 457.3 162.384 457.4 156.884C457.5 151.384 460.9 146.984 464.9 147.084C468.9 147.084 472.1 151.684 472 157.284Z" fill="#6797F6" stroke="#256BF6" stroke-width="1.5" stroke-miterlimit="10"/>
<path opacity="0.5" d="M464.3 157.284C464.1 163.684 460.2 168.683 455.6 168.583C451 168.383 447.4 163.184 447.6 156.884C447.7 150.584 451.6 145.483 456.2 145.583C460.8 145.583 464.5 150.884 464.3 157.284Z" fill="#6797F6" stroke="#256BF6" stroke-width="1.5" stroke-miterlimit="10"/>
<path d="M445.8 142.284L442.6 142.184L442.7 142.884C438.4 144.584 435.1 149.984 434.9 156.384C434.7 162.884 437.7 168.384 441.9 170.284L441.7 170.884L445 170.983C450.7 171.083 455.5 164.883 455.7 156.983C456.1 148.983 451.6 142.484 445.8 142.284Z" fill="#6797F6" stroke="#256BF6" stroke-width="1.5" stroke-miterlimit="10" stroke-linecap="round" stroke-linejoin="round"/>
<path d="M452.7 156.784C452.5 164.784 447.6 171.084 441.8 170.784C436.1 170.584 431.6 163.984 431.8 156.184C432 148.284 436.8 141.984 442.5 142.084C448.3 142.284 452.9 148.784 452.7 156.784Z" fill="#6797F6" stroke="#256BF6" stroke-width="1.5" stroke-miterlimit="10"/>
<path d="M440.1 160.184L440.3 152.684C440.3 151.884 441 151.484 441.4 151.884L445.3 155.684C445.8 156.084 445.7 157.084 445.3 157.484L441.2 160.984C440.7 161.484 440.1 160.984 440.1 160.184Z" fill="white"/>
<path d="M494.9 206.083L437.9 201.483L438 198.884L495 203.384L494.9 206.083Z" fill="#D3DDF2"/>
<path d="M494.6 214.483L437.7 209.284V206.684L494.6 211.684V214.483Z" fill="#D3DDF2"/>
<path d="M494.3 221.983L437.5 216.384V213.784L494.3 219.284V221.983Z" fill="#D3DDF2"/>
<path d="M493.3 232.884L492.4 262.483C492.3 264.083 493.3 265.584 494.6 265.784L631.8 286.184C633.5 286.384 634.9 285.084 635.1 283.284L635.7 274.483L502.3 256.284C500.4 255.984 499 253.883 499 251.483L499.6 233.884L493.3 232.884Z" fill="white"/>
<path opacity="0.2" d="M504.3 84.9834L498 85.2837L494.5 195.684L495.2 195.784L495.1 198.583L494.4 198.483L494.2 203.284L494.9 203.384L494.8 206.184L494.1 206.083L493.9 211.684L494.6 211.784L494.5 214.483L493.8 214.384L493.6 219.184L494.3 219.284L494.2 221.983L493.5 221.884L493.2 230.784L499.3 231.483L504.3 84.9834ZM501.3 74.3838C499.5 75.4838 498.2 77.8836 498.1 80.6836L498 83.1836L504.3 82.7837L504.6 74.1836L501.3 74.3838Z" fill="#1D528F"/>
<path d="M493.3 230.784L493.2 232.884L499.3 233.583L499.4 231.483L493.3 230.784ZM504.6 73.6836L503.1 73.7837C502.5 73.7837 501.8 74.0838 501.3 74.3838L504.6 74.1836V73.6836Z" fill="white"/>
<path opacity="0.2" d="M504.3 82.7837L498 83.1836L497.9 85.3838L504.2 85.0835L504.3 82.7837Z" fill="#1D528F"/>
<path d="M495.2 195.784L494.5 195.684L494.4 198.483L495.1 198.583L495.2 195.784Z" fill="white"/>
<path d="M494.9 203.384L494.2 203.284L494.1 206.083L494.8 206.184L494.9 203.384Z" fill="white"/>
<path d="M494.7 211.684L494 211.583L493.9 214.284L494.6 214.384L494.7 211.684Z" fill="white"/>
<path d="M494.4 219.284L493.7 219.184L493.6 221.884L494.3 221.983L494.4 219.284Z" fill="white"/>
<path d="M639.1 274.884L502 256.184C500.1 255.884 498.7 253.784 498.7 251.384L504.9 63.8837C505 59.6837 507.3 56.0837 510.1 55.8837L652.1 43.6835C655.8 43.3835 658.5 47.0833 658.2 51.9833L644 270.583C643.8 273.183 641.6 275.184 639.1 274.884Z" fill="white"/>
<path d="M639.1 274.884L639.2 273.684L502.1 255.083C501.4 254.983 500.7 254.484 500.3 253.884C499.8 253.184 499.6 252.384 499.6 251.384L505.8 63.6836C505.9 61.8836 506.4 60.1838 507.2 58.8838C508 57.6838 509 56.8837 510.1 56.7837L652.1 44.6836C653.6 44.5836 654.9 45.1834 655.8 46.4834C656.7 47.7834 657.3 49.6837 657.1 51.7837L642.9 270.083C642.8 271.183 642.4 272.084 641.7 272.684C641 273.284 640.1 273.583 639.2 273.483L639.1 274.884L639 276.083C642.1 276.483 644.8 274.083 645.1 270.583L659.4 51.7837C659.6 48.9837 658.9 46.5837 657.6 44.7837C656.3 43.0837 654.4 41.9836 652.2 42.1836L510.1 54.5835C508.5 54.6835 507 55.8835 505.9 57.5835C504.8 59.2835 504.1 61.4837 504.1 63.7837L498 251.083C497.9 254.083 499.7 256.783 502 257.083L639 275.983L639.1 274.884Z" fill="#4A6193"/>
<path d="M529.2 108.083L519.8 108.384C518.3 108.384 517.1 106.584 517.2 104.284L517.6 93.2836C517.7 90.9836 519 88.9833 520.5 88.9833L530 88.4833C531.6 88.3833 532.8 90.2834 532.7 92.5834L532.3 103.784C532.1 106.084 530.7 107.983 529.2 108.083Z" fill="#6797F6"/>
<path d="M529.2 108.084V106.983L519.8 107.284C519.3 107.284 518.9 106.983 518.5 106.483C518.2 105.983 517.9 105.184 518 104.284L518.4 93.2838C518.4 92.3838 518.7 91.5835 519.1 90.9835C519.5 90.3835 520 90.0836 520.4 90.0836L529.9 89.5836C530.4 89.5836 530.9 89.8839 531.2 90.3839C531.6 90.8839 531.8 91.6837 531.7 92.6837L531.3 103.884C531.3 104.784 531 105.584 530.6 106.184C530.2 106.784 529.7 107.084 529.2 107.084V108.084V109.184C530.3 109.184 531.2 108.483 531.9 107.483C532.6 106.483 533 105.184 533.1 103.684L533.5 92.4835C533.6 91.0835 533.2 89.6838 532.6 88.7838C532 87.7838 531 87.1838 530 87.2838L520.5 87.7838C519.5 87.8838 518.5 88.5836 517.8 89.5836C517.1 90.5836 516.7 91.8839 516.7 93.3839L516.3 104.384C516.3 105.784 516.6 107.083 517.2 107.983C517.8 108.883 518.7 109.583 519.7 109.483L529.1 109.284L529.2 108.084Z" fill="#256BF6"/>
<path d="M520.4 98.7836L523.5 102.983C523.7 103.183 523.9 103.284 524.1 103.284C524.3 103.284 524.6 103.184 524.7 102.884L529.9 96.2836C530.3 95.7836 530.3 95.0835 530 94.6835C529.7 94.2835 529.1 94.2836 528.8 94.7836L524.3 100.583L521.7 97.1835C521.4 96.7835 520.8 96.7835 520.5 97.1835C520.1 97.5835 520.1 98.3836 520.4 98.7836Z" fill="white"/>
<path d="M632.8 85.6836L545.6 89.7837C545.3 89.7837 545.1 89.5836 545.2 89.1836L545.3 86.7837C545.3 86.4837 545.5 86.1836 545.8 86.1836L633.1 81.7837C633.4 81.7837 633.6 82.0838 633.6 82.3838L633.4 84.9834C633.4 85.3834 633.1 85.6836 632.8 85.6836Z" fill="#D3DDF2"/>
<path d="M632.2 96.2837L545.2 99.4834C544.9 99.4834 544.7 99.2838 544.8 98.8838L544.9 96.4834C544.9 96.1834 545.1 95.8838 545.4 95.8838L632.5 92.3838C632.8 92.3838 633 92.6834 633 92.9834L632.8 95.5835C632.7 95.9835 632.5 96.2837 632.2 96.2837Z" fill="#D3DDF2"/>
<path d="M575.8 108.284L544.9 109.083C544.5 109.083 544.3 108.684 544.3 108.284L544.4 106.184C544.4 105.884 544.6 105.583 544.9 105.583L575.8 104.684C576.2 104.684 576.5 105.083 576.5 105.483L576.4 107.684C576.3 107.984 576.1 108.284 575.8 108.284Z" fill="#D3DDF2"/>
<path d="M525.9 193.584L516.7 192.983C515.2 192.883 514.1 190.984 514.1 188.784L514.5 178.184C514.6 175.984 515.9 174.184 517.4 174.284L526.7 174.684C528.2 174.784 529.4 176.684 529.3 178.884L528.9 189.684C528.7 191.984 527.4 193.684 525.9 193.584Z" fill="#6797F6"/>
<path d="M525.9 193.583V192.483L516.7 191.884C516.2 191.884 515.8 191.583 515.5 190.983C515.2 190.483 515 189.684 515 188.784L515.4 178.184C515.4 177.284 515.7 176.583 516.1 176.083C516.5 175.583 516.9 175.284 517.4 175.284L526.7 175.684C527.2 175.684 527.6 175.983 528 176.583C528.3 177.183 528.6 177.884 528.5 178.784L528.1 189.583C528.1 190.483 527.8 191.184 527.4 191.684C527 192.184 526.5 192.484 526.1 192.384L525.9 193.583V194.684C526.9 194.784 527.9 194.184 528.6 193.284C529.3 192.384 529.7 191.084 529.8 189.784L530.2 178.983C530.3 177.583 529.9 176.284 529.3 175.284C528.7 174.284 527.8 173.583 526.7 173.583L517.4 173.184C516.4 173.184 515.4 173.684 514.8 174.684C514.1 175.584 513.7 176.884 513.7 178.184L513.3 188.784C513.3 190.184 513.6 191.384 514.2 192.384C514.8 193.384 515.7 194.083 516.7 194.083L525.9 194.684V193.583Z" fill="#256BF6"/>
<path d="M517.2 183.684L520.4 188.184C520.6 188.384 520.8 188.484 521 188.584C521.2 188.684 521.4 188.484 521.6 188.284L526.5 182.584C526.9 182.184 526.9 181.484 526.6 181.084C526.3 180.684 525.7 180.584 525.4 180.984L521.1 185.984L518.5 182.284C518.2 181.884 517.7 181.784 517.3 182.184C516.9 182.584 516.9 183.284 517.2 183.684Z" fill="white"/>
<path d="M626 181.384L540.8 177.384C540.6 177.384 540.4 177.084 540.4 176.884L540.5 174.483C540.5 174.183 540.7 173.983 540.9 173.983L626.2 177.684C626.5 177.684 626.7 177.984 626.7 178.284L626.5 180.884C626.5 181.084 626.3 181.384 626 181.384Z" fill="#D3DDF2"/>
<path d="M625.4 191.583L540.4 186.784C540.2 186.784 540 186.484 540 186.284L540.1 183.884C540.1 183.584 540.3 183.384 540.5 183.384L625.6 187.884C625.9 187.884 626.1 188.183 626.1 188.483L625.9 191.083C625.9 191.283 625.6 191.583 625.4 191.583Z" fill="#D3DDF2"/>
<path d="M623.6 238.684L539.7 229.983C539.5 229.983 539.3 229.684 539.3 229.384L539.4 227.083C539.4 226.783 539.6 226.583 539.8 226.583L623.8 234.983C624.1 234.983 624.3 235.283 624.3 235.583L624.1 238.083C624.1 238.483 623.9 238.784 623.6 238.684Z" fill="#D3DDF2"/>
<path d="M624.2 228.583L540 220.684C539.8 220.684 539.6 220.383 539.6 220.083L539.7 217.784C539.7 217.484 539.9 217.284 540.1 217.284L624.3 224.884C624.6 224.884 624.8 225.183 624.8 225.483L624.6 227.983C624.7 228.383 624.5 228.683 624.2 228.583Z" fill="#D3DDF2"/>
<path d="M570.4 198.083L540 196.083C539.8 196.083 539.6 195.783 539.6 195.583L539.7 193.284C539.7 192.984 539.9 192.784 540.1 192.784L570.5 194.684C570.7 194.684 570.9 194.984 570.9 195.284L570.8 197.684C570.9 197.884 570.7 198.083 570.4 198.083Z" fill="#D3DDF2"/>
<path d="M524.3 235.284L515.2 234.284C513.7 234.084 512.6 232.183 512.7 229.983L513.1 219.583C513.2 217.383 514.4 215.684 515.9 215.884L525.1 216.683C526.6 216.783 527.8 218.783 527.7 220.983L527.3 231.583C527.1 233.783 525.8 235.484 524.3 235.284Z" fill="white"/>
<path d="M524.3 235.284V234.184L515.2 233.184C514.7 233.084 514.3 232.784 514 232.284C513.7 231.684 513.5 230.983 513.5 230.083L513.9 219.684C513.9 218.784 514.2 218.083 514.6 217.583C515 217.083 515.4 216.884 515.9 216.884L525.1 217.684C525.6 217.684 526 218.083 526.4 218.583C526.7 219.183 527 219.884 526.9 220.784L526.5 231.384C526.5 232.284 526.2 232.983 525.8 233.483C525.4 233.983 525 234.184 524.5 234.184L524.3 235.284V236.384C525.3 236.484 526.3 235.983 526.9 235.083C524.5 238.183 528.2 229.084 528.1 231.684L528.5 221.083C528.6 219.683 528.2 218.384 527.6 217.384C527 216.384 526.1 215.683 525.1 215.583L515.9 214.784C514.9 214.684 514 215.183 513.3 216.083C512.6 216.983 512.2 218.183 512.2 219.483L511.8 229.884C511.8 231.184 512.1 232.483 512.7 233.483C513.3 234.483 514.2 235.184 515.2 235.284L524.3 236.284V235.284Z" fill="#D3DDF2"/>
<path d="M569.4 241.684L539.3 238.284C539.1 238.284 538.9 237.984 538.9 237.684L539 235.384C539 235.084 539.2 234.884 539.4 234.884L569.5 238.184C569.7 238.184 569.9 238.484 569.9 238.784L569.8 241.184C569.9 241.584 569.7 241.784 569.4 241.684Z" fill="#D3DDF2"/>
<path d="M505 70.9836L657.4 60.384C658 60.384 658.6 59.6836 658.6 58.9836C658.6 58.2836 658.2 57.6839 657.5 57.7839L505 68.7839C504.5 68.7839 504.1 69.3836 504.1 69.9836C504.2 70.4836 504.6 70.9836 505 70.9836Z" fill="#4A6193"/>
<path d="M513.6 62.2835C513.6 63.5835 512.8 64.5834 511.8 64.6834C510.9 64.7834 510.1 63.7833 510.2 62.5833C510.2 61.3833 511 60.2834 512 60.1834C512.9 60.0834 513.6 60.9835 513.6 62.2835Z" fill="#D3DDF2"/>
<path d="M518.5 61.8836C518.5 63.1836 517.6 64.1835 516.7 64.2835C515.7 64.3835 515 63.3834 515.1 62.1834C515.1 60.8834 516 59.8835 516.9 59.7835C517.8 59.6835 518.6 60.5836 518.5 61.8836Z" fill="#D3DDF2"/>
<path d="M523.5 61.4835C523.5 62.7835 522.6 63.8839 521.7 63.8839C520.7 63.9839 520 62.9837 520 61.6837C520 60.3837 520.9 59.3838 521.8 59.2838C522.8 59.1838 523.6 60.1835 523.5 61.4835Z" fill="#D3DDF2"/>
<path d="M507.4 125.284C505.7 125.284 504.7 126.784 504.7 129.184L503.5 158.684C503.5 161.184 505.7 164.383 507.4 164.483L634.3 169.684C636.6 169.784 638.1 167.983 638.1 165.083L639.6 132.684C639.7 129.784 636.9 126.184 634.6 126.184L507.4 125.284Z" fill="#D3DDF2"/>
<path d="M623.7 157.284L487.5 152.784C485.5 152.684 483.2 149.483 483.3 146.983L484.4 117.684C484.5 115.184 485.7 113.684 487.6 113.684L625.1 112.284C627.7 112.284 630.8 115.884 630.6 118.884L628.3 152.483C628.1 155.583 626.3 157.384 623.7 157.284Z" fill="white"/>
<path d="M623.7 157.284L623.8 155.983L487.6 151.684C487.3 151.684 486.9 151.484 486.5 151.284C485.9 150.884 485.3 150.084 484.9 149.284C484.5 148.484 484.2 147.583 484.3 146.983L485.4 117.684C485.4 116.684 485.7 115.983 486 115.583C486.4 115.183 486.9 114.884 487.7 114.784L625.2 113.583C625.6 113.583 626.1 113.683 626.7 114.083C627.5 114.583 628.3 115.384 628.9 116.284C629.5 117.184 629.7 118.184 629.7 118.884L627.4 152.483C627.3 153.683 626.9 154.583 626.4 155.083C625.9 155.583 625.1 155.983 624 155.983L623.7 157.284L623.6 158.583C625.1 158.683 626.6 158.083 627.7 157.083C628.8 155.983 629.4 154.484 629.5 152.684L631.8 118.983C631.9 117.983 631.7 116.983 631.3 116.083C630.8 114.783 629.9 113.483 628.9 112.583C627.9 111.683 626.6 111.083 625.3 111.083L487.7 112.583C486.6 112.583 485.5 113.083 484.8 113.983C484.1 114.883 483.7 116.284 483.6 117.684L482.6 146.884C482.6 147.784 482.7 148.584 483 149.384C483.4 150.584 484.1 151.584 484.9 152.384C485.7 153.184 486.6 153.784 487.6 153.784L623.8 158.384L623.7 157.284Z" fill="#D3DDF2"/>
<path d="M550.5 146.284L519.4 145.684C519.1 145.684 518.8 145.383 518.8 144.983L518.9 142.983C518.9 142.583 519.2 142.284 519.5 142.284L550.7 142.784C551 142.784 551.3 143.083 551.3 143.483L551.2 145.583C551.1 145.983 550.8 146.284 550.5 146.284Z" fill="#D3DDF2"/>
<path opacity="0.5" d="M504.4 143.684L494.9 143.483C493.4 143.483 492.2 141.584 492.3 139.284L492.7 128.384C492.8 126.084 494.1 124.184 495.7 124.184H505.3C506.9 124.184 508.1 126.084 508 128.384L507.5 139.483C507.3 141.883 506 143.784 504.4 143.684Z" fill="#6797F6" stroke="#256BF6" stroke-width="1.5" stroke-miterlimit="10"/>
<path opacity="0.5" d="M494.4 144.884L483.2 144.684C481.4 144.684 480 142.484 480.1 139.784L480.6 126.983C480.7 124.283 482.3 122.083 484.1 122.083H495.4C497.3 122.083 498.7 124.283 498.6 127.083L498.1 140.083C497.8 142.783 496.2 144.984 494.4 144.884Z" fill="#6797F6" stroke="#256BF6" stroke-width="1.5" stroke-miterlimit="10"/>
<path d="M486.8 119.684L483.6 119.184L481.9 122.983L479.8 124.583C477.8 124.583 470.1 122.184 470 125.184L469.5 139.384C469.4 140.984 469.9 142.384 470.6 143.384L469.4 144.284L472.8 144.784C472.9 144.784 472.9 144.784 473 144.784L485.4 144.983C487.5 144.983 489.2 142.583 489.4 139.583L490 125.184C489.9 122.384 488.6 120.084 486.8 119.684Z" fill="#6797F6" stroke="#256BF6" stroke-width="1.5" stroke-miterlimit="10" stroke-linecap="round" stroke-linejoin="round"/>
<path d="M482.099 144.483L469.7 144.284C467.7 144.284 466.2 141.784 466.3 138.784L466.8 124.583C466.9 121.583 468.6 119.184 470.7 119.184H483.2C485.3 119.184 486.8 121.684 486.7 124.684L486.099 139.083C485.899 142.083 484.099 144.583 482.099 144.483Z" fill="#6797F6" stroke="#256BF6" stroke-width="1.5" stroke-miterlimit="10"/>
<path d="M470.4 131.783L474.6 137.583C474.8 137.883 475.1 137.983 475.4 137.983C475.7 137.983 476 137.883 476.2 137.583L482.6 129.884C483.1 129.284 483.1 128.383 482.7 127.783C482.3 127.183 481.5 127.183 481.1 127.783L475.6 134.384L472.1 129.683C471.7 129.083 471 129.083 470.5 129.683C470.1 130.283 470 131.183 470.4 131.783Z" fill="white"/>
<path d="M608 126.483H520.2C519.9 126.483 519.6 126.184 519.7 125.784L519.8 123.684C519.8 123.284 520.1 122.983 520.4 122.983L608.3 122.684C608.7 122.684 609 123.083 608.9 123.483L608.8 125.784C608.7 126.084 608.4 126.483 608 126.483Z" fill="#D3DDF2"/>
<path d="M607.4 136.983L519.8 136.083C519.5 136.083 519.2 135.784 519.2 135.384L519.3 133.384C519.3 132.984 519.6 132.684 519.9 132.684L607.6 133.284C608 133.284 608.3 133.683 608.2 134.083L608.1 136.384C608.1 136.584 607.8 136.983 607.4 136.983Z" fill="#D3DDF2"/>
<path d="M628.2 102.583L625.2 102.483L625.3 103.083C621.3 104.683 618.2 109.684 618 115.684C617.8 121.684 620.6 126.884 624.5 128.684L624.3 129.184L627.4 129.284C632.7 129.384 637.2 123.584 637.4 116.284C637.7 108.884 633.6 102.783 628.2 102.583Z" fill="#6797F6" stroke="#256BF6" stroke-width="1.5" stroke-miterlimit="10" stroke-linecap="round" stroke-linejoin="round"/>
<path d="M634.6 116.083C634.4 123.483 629.8 129.383 624.4 129.183C619.1 128.983 614.9 122.883 615.1 115.583C615.3 108.283 619.7 102.383 625.1 102.483C630.5 102.583 634.8 108.683 634.6 116.083Z" fill="#6797F6" stroke="#256BF6" stroke-width="1.5" stroke-miterlimit="10"/>
<path d="M620.9 121.583C621.3 116.183 625.8 115.983 625.9 113.983C625.9 113.383 625.6 112.983 624.9 112.983C624 112.983 623.5 114.083 623.5 114.083L621.3 112.884C621.3 112.884 622.4 110.183 625.3 110.083C627.4 110.083 628.8 111.684 628.7 113.784C628.5 116.684 625.7 117.284 624.6 118.784H628.3L628.1 121.684L620.9 121.583Z" fill="white"/>
<path d="M485.8 109.083L438.9 110.384C438.4 110.384 438 109.684 438 108.884V106.983C438 106.183 438.4 105.484 439 105.384L486 103.784C486.6 103.784 487 104.484 487 105.384L486.9 107.384C486.9 108.284 486.4 109.083 485.8 109.083Z" fill="#A7B2C7"/>
<path d="M467.3 117.884L438.4 118.384C438.1 118.384 437.8 117.983 437.8 117.483V116.083C437.8 115.583 438.1 115.083 438.4 115.083L467.3 114.483C467.6 114.483 467.9 114.883 467.9 115.483V116.983C467.9 117.483 467.7 117.884 467.3 117.884Z" fill="#A7B2C7"/>
<path d="M374.9 183.584C378.6 177.484 384.9 174.584 389.1 177.084C391.2 178.284 392.4 180.784 392.7 183.784C394 183.384 394.6 182.684 396.5 179.484L409.8 154.184C409.9 154.084 410 153.884 410.1 153.784C410.8 153.084 411.8 152.884 412.7 153.484L417.1 156.184C418 156.684 418.3 157.784 418 158.684C418 158.784 417.9 158.984 417.8 159.084L404.1 185.084C403 186.884 400.6 191.284 395.1 194.884C390.4 197.984 387.6 199.284 383.5 199.984C380.6 200.684 377.8 200.384 375.8 199.184C374.5 198.384 373.5 197.184 373 195.584C371.8 192.384 372.4 187.784 374.9 183.584Z" fill="white" stroke="#4A6193" stroke-width="1.5" stroke-miterlimit="10" stroke-linecap="round" stroke-linejoin="round"/>
<path d="M385.099 183.784C386.599 184.684 386.999 186.583 386.099 187.983L383.599 192.184C382.699 193.684 380.8 194.084 379.4 193.184C377.9 192.284 377.5 190.383 378.4 188.983L380.9 184.784C381.7 183.384 383.599 182.884 385.099 183.784Z" fill="#4A6193"/>
<path d="M389.273 192.555C389.673 191.893 389.767 191.217 389.483 191.046C389.199 190.875 388.646 191.272 388.246 191.934C387.846 192.596 387.753 193.272 388.036 193.443C388.32 193.614 388.874 193.217 389.273 192.555Z" fill="#4A6193"/>
<path d="M377.305 185.463C377.676 184.848 377.823 184.257 377.634 184.143C377.445 184.029 376.991 184.435 376.62 185.049C376.249 185.664 376.101 186.255 376.291 186.369C376.48 186.483 376.934 186.077 377.305 185.463Z" fill="#4A6193"/>
<path opacity="0.15" d="M374.9 183.584C378.6 177.484 384.9 174.584 389.1 177.084C391.2 178.284 392.4 180.784 392.7 183.784C394 183.384 394.6 182.684 396.5 179.484L409.8 154.184C409.9 154.084 410 153.884 410.1 153.784C410.8 153.084 411.8 152.884 412.7 153.484L396.6 183.484C395.5 185.284 391.3 193.284 390.9 186.784C390.5 180.384 388.4 179.684 385.6 179.284C382.8 178.784 380.8 180.084 377.7 183.184C374.7 186.184 372.9 190.484 373 195.684C371.8 192.384 372.4 187.784 374.9 183.584Z" fill="#4A6193"/>
<path opacity="0.4" d="M409.8 154.483C410.5 153.783 411.5 153.583 412.4 154.183L416.8 156.884C417.7 157.384 418 158.484 417.7 159.384L409.8 154.483Z" fill="#4A6193"/>
<path d="M300.2 268.284L309.4 298.284V298.384C309.7 299.084 310.5 299.484 311.2 299.184L316.2 297.684C316.9 297.484 317.4 296.684 317.2 295.984V295.884L307.9 265.584C307.7 264.884 308.3 264.184 309 264.184C310.3 264.384 311.7 264.284 313.1 263.884C316.8 262.784 320.6 259.284 322 255.284C322.1 254.884 322.1 254.484 322 254.084L319.6 246.284C319.4 245.684 319.1 245.184 318.6 244.884C315.2 242.284 310.1 241.284 306.5 242.384C302.5 243.584 299.2 247.884 298.6 252.484C297.9 256.684 298 261.284 300.2 268.284Z" fill="white" stroke="#4A6193" stroke-width="1.5" stroke-miterlimit="10" stroke-linecap="round" stroke-linejoin="round"/>
<path d="M315.1 252.983C315.818 252.983 316.4 252.402 316.4 251.684C316.4 250.966 315.818 250.384 315.1 250.384C314.382 250.384 313.8 250.966 313.8 251.684C313.8 252.402 314.382 252.983 315.1 252.983Z" fill="#4A6193"/>
<path d="M304 247.184L303.099 250.184C302.899 250.684 302.5 251.084 302 251.184L301.599 251.284C301.199 251.384 300.9 251.084 301 250.684L302.3 247.284C302.4 246.984 302.6 246.784 302.9 246.684L303.3 246.584C303.8 246.484 304.1 246.884 304 247.184Z" fill="#4A6193"/>
<path opacity="0.15" d="M307 267.884L316.2 297.784H316.3C317 297.584 317.5 296.783 317.3 296.083V295.983L308 265.684C307.8 264.984 308.4 264.284 309.1 264.284C310.4 264.484 311.8 264.383 313.2 263.983C316.9 262.883 320.7 259.384 322.1 255.384C322.2 254.984 322.2 254.584 322.1 254.184L321.7 252.983C318.6 257.583 311.5 261.484 307.9 260.784C307 260.584 306.2 261.183 306.1 262.083C306.1 263.283 306.2 265.184 307 267.884Z" fill="#4A6193"/>
<path opacity="0.4" d="M308.9 297.784C309.2 298.484 310 298.883 310.7 298.583L315.7 297.083C316.4 296.883 316.9 296.084 316.7 295.384L308.9 297.784Z" fill="#4A6193"/>
</svg>
